<?xml version="1.0" encoding="UTF-8"?>
<!DOCTYPE svg PUBLIC "-//W3C//DTD SVG 1.1//EN" "http://www.w3.org/Graphics/SVG/1.1/DTD/svg11.dtd">
<svg xmlns="http://www.w3.org/2000/svg" version="1.1" width="2000px" height="615px" style="shape-rendering:geometricPrecision; text-rendering:geometricPrecision; image-rendering:optimizeQuality; fill-rule:evenodd; clip-rule:evenodd" xmlns:xlink="http://www.w3.org/1999/xlink">
<g><path style="opacity:0.738" fill="#056945" d="M 1654.5,41.5 C 1751.25,36.3039 1828.75,71.9706 1887,148.5C 1934.06,218.553 1945.72,294.219 1922,375.5C 1893.5,457.333 1838.33,512.5 1756.5,541C 1661.26,567.759 1576.6,548.759 1502.5,484C 1428.62,408.973 1405.78,320.473 1434,218.5C 1462.01,137.825 1516.18,82.9915 1596.5,54C 1615.59,48.0833 1634.93,43.9166 1654.5,41.5 Z M 1658.5,45.5 C 1763.73,42.3527 1843.57,85.3527 1898,174.5C 1932.47,239.154 1938.8,306.488 1917,376.5C 1886.93,458.239 1830.43,512.406 1747.5,539C 1662.71,560.844 1586.04,544.844 1517.5,491C 1449.89,431.884 1420.06,357.384 1428,267.5C 1440.49,182.613 1483.66,118.779 1557.5,76C 1589.24,59.0267 1622.91,48.86 1658.5,45.5 Z"/></g>
<g><path style="opacity:1" fill="#5492a9" d="M 1696.5,54.5 C 1677.77,54.0567 1659.11,54.7234 1640.5,56.5C 1659.06,52.3491 1677.73,51.6825 1696.5,54.5 Z"/></g>
<g><path style="opacity:0.991" fill="#066946" d="M 1696.5,54.5 C 1778.58,62.1489 1841.74,100.482 1886,169.5C 1925.42,237.699 1932.09,309.033 1906,383.5C 1874.79,460.38 1819.29,510.213 1739.5,533C 1639.8,554.655 1556.3,527.488 1489,451.5C 1439,387.207 1423.34,315.207 1442,235.5C 1464.78,155.721 1514.61,100.221 1591.5,69C 1607.35,62.8813 1623.69,58.7146 1640.5,56.5C 1659.11,54.7234 1677.77,54.0567 1696.5,54.5 Z"/></g>
<g><path style="opacity:1" fill="#f8fafa" d="M 1659.5,55.5 C 1725.16,51.7479 1776,77.0812 1812,131.5C 1840.65,184.444 1840.65,237.444 1812,290.5C 1770.31,352.74 1712.48,376.573 1638.5,362C 1575.14,342.637 1536.97,300.47 1524,235.5C 1516.68,180.113 1533.18,133.28 1573.5,95C 1598.31,73.426 1626.98,60.2593 1659.5,55.5 Z"/></g>
<g><path style="opacity:1" fill="#1b7152" d="M 1662.5,63.5 C 1717.39,60.2737 1761.89,79.9404 1796,122.5C 1829.55,171.094 1834.22,222.427 1810,276.5C 1780.76,329.308 1735.76,356.641 1675,358.5C 1620.33,355.348 1578.66,330.681 1550,284.5C 1525.15,237.644 1524.15,190.311 1547,142.5C 1572.79,97.68 1611.29,71.3466 1662.5,63.5 Z"/></g>
<g><path style="opacity:1" fill="#85acea" d="M 1815.5,247.5 C 1815.58,244.219 1814.91,241.219 1813.5,238.5C 1813.58,235.219 1812.91,232.219 1811.5,229.5C 1811.58,226.219 1810.91,223.219 1809.5,220.5C 1809.78,218.585 1809.45,216.919 1808.5,215.5C 1809.23,214.292 1809.57,212.959 1809.5,211.5C 1809.67,210.508 1809.34,209.842 1808.5,209.5C 1808.58,206.219 1807.91,203.219 1806.5,200.5C 1806.72,197.6 1806.05,194.933 1804.5,192.5C 1803,194.802 1801.67,194.469 1800.5,191.5C 1799.7,191.957 1799.37,192.624 1799.5,193.5C 1798.83,193.5 1798.17,193.5 1797.5,193.5C 1797.37,190.104 1796.37,189.771 1794.5,192.5C 1793.17,189.833 1791.83,189.833 1790.5,192.5C 1789.83,191.833 1789.17,191.167 1788.5,190.5C 1787.71,191.77 1786.71,192.77 1785.5,193.5C 1784.88,191.023 1783.88,191.023 1782.5,193.5C 1780.38,192.128 1779.38,192.795 1779.5,195.5C 1777.88,200.256 1776.88,205.256 1776.5,210.5C 1775.43,212.347 1775.43,214.347 1776.5,216.5C 1775.73,217.263 1775.23,218.263 1775,219.5C 1761.83,212.333 1748.67,205.167 1735.5,198C 1734.11,196.829 1733.27,195.329 1733,193.5C 1731.43,184.56 1729.27,175.893 1726.5,167.5C 1727.31,166.163 1728.48,165.163 1730,164.5C 1730.38,162.803 1730.22,161.137 1729.5,159.5C 1725.16,139.479 1720.82,119.479 1716.5,99.5C 1714.83,99.5 1713.17,99.5 1711.5,99.5C 1711.99,103.487 1710.32,105.82 1706.5,106.5C 1705.09,103.05 1704.42,99.3837 1704.5,95.5C 1702.83,95.5 1701.17,95.5 1699.5,95.5C 1699.72,98.966 1698.38,101.633 1695.5,103.5C 1693.02,100.65 1692.02,97.3164 1692.5,93.5C 1690.83,93.5 1689.17,93.5 1687.5,93.5C 1688.34,97.5393 1687.01,100.539 1683.5,102.5C 1681.02,99.6497 1680.02,96.3164 1680.5,92.5C 1678.83,92.5 1677.17,92.5 1675.5,92.5C 1676.25,96.6971 1674.92,100.03 1671.5,102.5C 1670.85,100.816 1669.85,99.4831 1668.5,98.5C 1668.5,96.8333 1668.5,95.1667 1668.5,93.5C 1666.59,93.2155 1664.92,93.5489 1663.5,94.5C 1664.23,98.2243 1662.89,100.891 1659.5,102.5C 1658.26,101.754 1656.93,101.421 1655.5,101.5C 1655.5,99.8333 1655.5,98.1667 1655.5,96.5C 1654.17,96.5 1652.83,96.5 1651.5,96.5C 1651.66,98.1992 1651.49,99.8659 1651,101.5C 1649.62,102.551 1648.62,103.884 1648,105.5C 1646.64,104.62 1645.14,104.286 1643.5,104.5C 1643.5,102.833 1643.5,101.167 1643.5,99.5C 1641.86,99.2865 1640.36,99.6198 1639,100.5C 1634.71,121.711 1630.21,142.878 1625.5,164C 1625.84,165.03 1626.5,165.53 1627.5,165.5C 1628.28,166.156 1628.94,166.989 1629.5,168C 1628.77,169.766 1628.43,171.599 1628.5,173.5C 1626.1,181.579 1623.77,189.745 1621.5,198C 1607.66,205.754 1593.66,213.254 1579.5,220.5C 1578.83,219.051 1578.16,217.718 1577.5,216.5C 1578.57,214.347 1578.57,212.347 1577.5,210.5C 1577.12,205.256 1576.12,200.256 1574.5,195.5C 1574.72,194.325 1574.39,193.325 1573.5,192.5C 1572.7,192.957 1572.37,193.624 1572.5,194.5C 1571.29,193.77 1570.29,192.77 1569.5,191.5C 1568.7,191.957 1568.37,192.624 1568.5,193.5C 1567.29,192.77 1566.29,191.77 1565.5,190.5C 1564.17,193.167 1562.83,193.167 1561.5,190.5C 1560.17,193.167 1558.83,193.167 1557.5,190.5C 1556.5,192.542 1555.16,192.875 1553.5,191.5C 1552.33,194.469 1551,194.802 1549.5,192.5C 1548.61,193.325 1548.28,194.325 1548.5,195.5C 1547.55,196.919 1547.22,198.585 1547.5,200.5C 1546.13,203.961 1545.13,207.627 1544.5,211.5C 1544.43,212.959 1544.77,214.292 1545.5,215.5C 1544.09,218.219 1543.42,221.219 1543.5,224.5C 1542.55,229.287 1541.55,233.954 1540.5,238.5C 1539.82,240.158 1538.99,241.825 1538,243.5C 1525.24,173.53 1549.07,120.03 1609.5,83C 1644.7,65.2092 1681.37,61.5425 1719.5,72C 1774.14,91.0999 1807.64,128.933 1820,185.5C 1822.44,204.946 1821.77,224.279 1818,243.5C 1817.8,245.32 1816.97,246.653 1815.5,247.5 Z"/></g>
<g><path style="opacity:1" fill="#478c92" d="M 1663.5,94.5 C 1664.92,93.5489 1666.59,93.2155 1668.5,93.5C 1668.5,95.1667 1668.5,96.8333 1668.5,98.5C 1667.57,97.4324 1667.23,96.099 1667.5,94.5C 1666.17,94.5 1664.83,94.5 1663.5,94.5 Z"/></g>
<g><path style="opacity:1" fill="#2f7f5a" d="M 1729.5,159.5 C 1728.84,160.398 1728.18,161.398 1727.5,162.5C 1726.89,162.376 1726.56,162.043 1726.5,161.5C 1727.62,159.712 1727.79,157.712 1727,155.5C 1723.14,137.426 1718.98,119.426 1714.5,101.5C 1713.55,103.045 1713.21,104.712 1713.5,106.5C 1711.52,107.348 1709.52,107.848 1707.5,108C 1705.89,106.951 1705.23,105.451 1705.5,103.5C 1704.5,103.5 1703.5,103.5 1702.5,103.5C 1702.66,101.473 1702.5,99.4727 1702,97.5C 1701.51,99.1341 1701.34,100.801 1701.5,102.5C 1700.5,102.5 1699.5,102.5 1698.5,102.5C 1698.5,103.5 1698.5,104.5 1698.5,105.5C 1695.05,106.244 1693.38,104.91 1693.5,101.5C 1692.5,101.5 1691.5,101.5 1690.5,101.5C 1690.66,99.4727 1690.5,97.4727 1690,95.5C 1689.3,98.8309 1688.13,101.831 1686.5,104.5C 1684.83,104.5 1683.17,104.5 1681.5,104.5C 1681.5,103.167 1681.5,101.833 1681.5,100.5C 1680.5,100.5 1679.5,100.5 1678.5,100.5C 1678.17,92.5 1677.83,92.5 1677.5,100.5C 1676.5,100.5 1675.5,100.5 1674.5,100.5C 1674.5,101.833 1674.5,103.167 1674.5,104.5C 1672.83,104.5 1671.17,104.5 1669.5,104.5C 1669.5,103.167 1669.5,101.833 1669.5,100.5C 1668.5,100.5 1667.5,100.5 1666.5,100.5C 1666.66,98.8008 1666.49,97.1341 1666,95.5C 1665.5,97.4727 1665.34,99.4727 1665.5,101.5C 1664.5,101.5 1663.5,101.5 1662.5,101.5C 1661.97,104.779 1659.97,106.113 1656.5,105.5C 1655.51,102.927 1654.67,100.26 1654,97.5C 1653.5,99.4727 1653.34,101.473 1653.5,103.5C 1652.5,103.5 1651.5,103.5 1650.5,103.5C 1650.84,107.151 1649.17,108.817 1645.5,108.5C 1645.5,107.5 1645.5,106.5 1645.5,105.5C 1644.5,105.5 1643.5,105.5 1642.5,105.5C 1642.29,99.7389 1641.46,99.4055 1640,104.5C 1636.17,122.662 1632.34,140.829 1628.5,159C 1628.53,160.07 1628.86,160.903 1629.5,161.5C 1628.19,162.467 1627.53,163.801 1627.5,165.5C 1626.5,165.53 1625.84,165.03 1625.5,164C 1630.21,142.878 1634.71,121.711 1639,100.5C 1640.36,99.6198 1641.86,99.2865 1643.5,99.5C 1643.5,101.167 1643.5,102.833 1643.5,104.5C 1645.14,104.286 1646.64,104.62 1648,105.5C 1648.62,103.884 1649.62,102.551 1651,101.5C 1651.49,99.8659 1651.66,98.1992 1651.5,96.5C 1652.83,96.5 1654.17,96.5 1655.5,96.5C 1655.5,98.1667 1655.5,99.8333 1655.5,101.5C 1656.93,101.421 1658.26,101.754 1659.5,102.5C 1662.89,100.891 1664.23,98.2243 1663.5,94.5C 1664.83,94.5 1666.17,94.5 1667.5,94.5C 1667.23,96.099 1667.57,97.4324 1668.5,98.5C 1669.85,99.4831 1670.85,100.816 1671.5,102.5C 1674.92,100.03 1676.25,96.6971 1675.5,92.5C 1677.17,92.5 1678.83,92.5 1680.5,92.5C 1680.02,96.3164 1681.02,99.6497 1683.5,102.5C 1687.01,100.539 1688.34,97.5393 1687.5,93.5C 1689.17,93.5 1690.83,93.5 1692.5,93.5C 1692.02,97.3164 1693.02,100.65 1695.5,103.5C 1698.38,101.633 1699.72,98.966 1699.5,95.5C 1701.17,95.5 1702.83,95.5 1704.5,95.5C 1704.42,99.3837 1705.09,103.05 1706.5,106.5C 1710.32,105.82 1711.99,103.487 1711.5,99.5C 1713.17,99.5 1714.83,99.5 1716.5,99.5C 1720.82,119.479 1725.16,139.479 1729.5,159.5 Z"/></g>
<g><path style="opacity:1" fill="#fdfdfd" d="M 1726.5,161.5 C 1712.92,156.703 1698.92,154.036 1684.5,153.5C 1684.5,149.833 1684.5,146.167 1684.5,142.5C 1680.17,142.5 1675.83,142.5 1671.5,142.5C 1671.5,146.167 1671.5,149.833 1671.5,153.5C 1657.12,154.23 1643.12,156.896 1629.5,161.5C 1628.86,160.903 1628.53,160.07 1628.5,159C 1632.34,140.829 1636.17,122.662 1640,104.5C 1641.46,99.4055 1642.29,99.7389 1642.5,105.5C 1643.5,105.5 1644.5,105.5 1645.5,105.5C 1645.5,106.5 1645.5,107.5 1645.5,108.5C 1649.17,108.817 1650.84,107.151 1650.5,103.5C 1651.5,103.5 1652.5,103.5 1653.5,103.5C 1653.34,101.473 1653.5,99.4727 1654,97.5C 1654.67,100.26 1655.51,102.927 1656.5,105.5C 1659.97,106.113 1661.97,104.779 1662.5,101.5C 1663.5,101.5 1664.5,101.5 1665.5,101.5C 1665.34,99.4727 1665.5,97.4727 1666,95.5C 1666.49,97.1341 1666.66,98.8008 1666.5,100.5C 1667.5,100.5 1668.5,100.5 1669.5,100.5C 1669.5,101.833 1669.5,103.167 1669.5,104.5C 1671.17,104.5 1672.83,104.5 1674.5,104.5C 1674.5,103.167 1674.5,101.833 1674.5,100.5C 1675.5,100.5 1676.5,100.5 1677.5,100.5C 1677.83,92.5 1678.17,92.5 1678.5,100.5C 1679.5,100.5 1680.5,100.5 1681.5,100.5C 1681.5,101.833 1681.5,103.167 1681.5,104.5C 1683.17,104.5 1684.83,104.5 1686.5,104.5C 1688.13,101.831 1689.3,98.8309 1690,95.5C 1690.5,97.4727 1690.66,99.4727 1690.5,101.5C 1691.5,101.5 1692.5,101.5 1693.5,101.5C 1693.38,104.91 1695.05,106.244 1698.5,105.5C 1698.5,104.5 1698.5,103.5 1698.5,102.5C 1699.5,102.5 1700.5,102.5 1701.5,102.5C 1701.34,100.801 1701.51,99.1341 1702,97.5C 1702.5,99.4727 1702.66,101.473 1702.5,103.5C 1703.5,103.5 1704.5,103.5 1705.5,103.5C 1705.23,105.451 1705.89,106.951 1707.5,108C 1709.52,107.848 1711.52,107.348 1713.5,106.5C 1713.21,104.712 1713.55,103.045 1714.5,101.5C 1718.98,119.426 1723.14,137.426 1727,155.5C 1727.79,157.712 1727.62,159.712 1726.5,161.5 Z"/></g>
<g><path style="opacity:1" fill="#167140" d="M 1726.5,161.5 C 1726.56,162.043 1726.89,162.376 1727.5,162.5C 1728.18,161.398 1728.84,160.398 1729.5,159.5C 1730.22,161.137 1730.38,162.803 1730,164.5C 1728.48,165.163 1727.31,166.163 1726.5,167.5C 1726.67,168.492 1726.34,169.158 1725.5,169.5C 1724.94,168.21 1723.94,167.377 1722.5,167C 1693.91,157.502 1665.24,157.169 1636.5,166C 1631.67,167.332 1629.33,170.498 1629.5,175.5C 1628.66,175.158 1628.33,174.492 1628.5,173.5C 1628.43,171.599 1628.77,169.766 1629.5,168C 1628.94,166.989 1628.28,166.156 1627.5,165.5C 1627.53,163.801 1628.19,162.467 1629.5,161.5C 1643.12,156.896 1657.12,154.23 1671.5,153.5C 1671.5,149.833 1671.5,146.167 1671.5,142.5C 1675.83,142.5 1680.17,142.5 1684.5,142.5C 1684.5,146.167 1684.5,149.833 1684.5,153.5C 1698.92,154.036 1712.92,156.703 1726.5,161.5 Z"/></g>
<g><path style="opacity:0.921" fill="#056945" d="M 1298.5,146.5 C 1303.83,146.5 1309.17,146.5 1314.5,146.5C 1314.26,150.842 1313.93,155.176 1313.5,159.5C 1309.87,158.588 1306.2,158.421 1302.5,159C 1299.56,162.803 1300.56,165.136 1305.5,166C 1309.15,166.499 1312.82,166.665 1316.5,166.5C 1316.5,170.5 1316.5,174.5 1316.5,178.5C 1304.5,178.5 1292.5,178.5 1280.5,178.5C 1280.5,174.5 1280.5,170.5 1280.5,166.5C 1282.17,166.5 1283.83,166.5 1285.5,166.5C 1283.87,155.727 1288.2,149.06 1298.5,146.5 Z"/></g>
<g><path style="opacity:1" fill="#8dbba4" d="M 1673.5,144.5 C 1673.5,147.167 1673.5,149.833 1673.5,152.5C 1676.5,152.5 1679.5,152.5 1682.5,152.5C 1682.5,149.833 1682.5,147.167 1682.5,144.5C 1683.48,147.287 1683.81,150.287 1683.5,153.5C 1679.83,153.5 1676.17,153.5 1672.5,153.5C 1672.19,150.287 1672.52,147.287 1673.5,144.5 Z"/></g>
<g><path style="opacity:1" fill="#fefffe" d="M 1673.5,144.5 C 1676.5,144.5 1679.5,144.5 1682.5,144.5C 1682.5,147.167 1682.5,149.833 1682.5,152.5C 1679.5,152.5 1676.5,152.5 1673.5,152.5C 1673.5,149.833 1673.5,147.167 1673.5,144.5 Z"/></g>
<g><path style="opacity:1" fill="#fdfefd" d="M 1725.5,169.5 C 1738.16,221.14 1750.82,272.807 1763.5,324.5C 1753.85,333.003 1742.85,339.503 1730.5,344C 1681.55,361.652 1635.72,355.819 1593,326.5C 1592.52,325.552 1592.35,324.552 1592.5,323.5C 1605.07,274.316 1617.41,224.983 1629.5,175.5C 1629.33,170.498 1631.67,167.332 1636.5,166C 1665.24,157.169 1693.91,157.502 1722.5,167C 1723.94,167.377 1724.94,168.21 1725.5,169.5 Z"/></g>
<g><path style="opacity:0.939" fill="#056945" d="M 205.5,180.5 C 212.833,180.5 220.167,180.5 227.5,180.5C 227.5,207.833 227.5,235.167 227.5,262.5C 259.5,262.5 291.5,262.5 323.5,262.5C 323.5,246.167 323.5,229.833 323.5,213.5C 330.833,213.5 338.167,213.5 345.5,213.5C 345.5,236.167 345.5,258.833 345.5,281.5C 298.833,281.5 252.167,281.5 205.5,281.5C 205.5,247.833 205.5,214.167 205.5,180.5 Z"/></g>
<g><path style="opacity:0.948" fill="#056945" d="M 421.5,180.5 C 428.833,180.5 436.167,180.5 443.5,180.5C 443.5,214.167 443.5,247.833 443.5,281.5C 428.167,281.5 412.833,281.5 397.5,281.5C 395.807,309.782 380.974,321.116 353,315.5C 353.002,309.81 353.502,304.143 354.5,298.5C 359.502,298.898 364.502,298.398 369.5,297C 371.815,295.891 373.315,294.057 374,291.5C 375.454,265.543 375.954,239.543 375.5,213.5C 382.833,213.5 390.167,213.5 397.5,213.5C 397.5,229.833 397.5,246.167 397.5,262.5C 405.5,262.5 413.5,262.5 421.5,262.5C 421.5,235.167 421.5,207.833 421.5,180.5 Z"/></g>
<g><path style="opacity:0.942" fill="#056945" d="M 462.5,180.5 C 469.833,180.5 477.167,180.5 484.5,180.5C 484.5,214.167 484.5,247.833 484.5,281.5C 477.167,281.5 469.833,281.5 462.5,281.5C 462.5,247.833 462.5,214.167 462.5,180.5 Z"/></g>
<g><path style="opacity:0.944" fill="#056945" d="M 726.5,180.5 C 733.833,180.5 741.167,180.5 748.5,180.5C 748.555,196.859 748.388,213.193 748,229.5C 759.223,212.649 774.39,207.816 793.5,215C 799.996,219.153 804.162,224.987 806,232.5C 808.5,242.671 807.666,252.504 803.5,262C 812.494,262.5 821.494,262.666 830.5,262.5C 830.5,246.167 830.5,229.833 830.5,213.5C 837.833,213.5 845.167,213.5 852.5,213.5C 852.5,229.833 852.5,246.167 852.5,262.5C 858.868,262.83 865.202,262.496 871.5,261.5C 864.999,244.676 868.332,230.176 881.5,218C 896.22,209.396 910.887,209.396 925.5,218C 929.993,221.834 932.826,226.667 934,232.5C 935.44,248.776 935.94,265.11 935.5,281.5C 806.474,281.988 677.474,281.488 548.5,280C 534.415,277.248 526.581,268.748 525,254.5C 522.687,227.419 535.021,213.085 562,211.5C 571.439,211.751 580.606,213.418 589.5,216.5C 590.499,231.819 590.833,247.152 590.5,262.5C 607.18,262.833 623.847,262.499 640.5,261.5C 634.735,244.577 638.401,230.077 651.5,218C 665.317,209.761 679.317,209.427 693.5,217C 701.759,224.427 705.759,233.76 705.5,245C 705.373,250.805 704.04,256.305 701.5,261.5C 709.807,262.498 718.14,262.831 726.5,262.5C 726.5,235.167 726.5,207.833 726.5,180.5 Z M 555.5,230.5 C 559.876,230.114 564.043,230.781 568,232.5C 568.5,242.494 568.666,252.494 568.5,262.5C 548.116,262.752 541.949,253.418 550,234.5C 551.812,233.023 553.645,231.69 555.5,230.5 Z M 668.5,230.5 C 678.892,230.562 683.892,235.896 683.5,246.5C 683.411,259.114 677.411,263.947 665.5,261C 658.762,252.81 657.929,243.977 663,234.5C 664.812,233.023 666.645,231.69 668.5,230.5 Z M 770.5,230.5 C 780.627,230.296 785.294,235.296 784.5,245.5C 785.255,254.499 781.255,259.999 772.5,262C 764.507,262.5 756.507,262.666 748.5,262.5C 750.438,247.907 757.772,237.241 770.5,230.5 Z M 898.5,230.5 C 908.991,229.822 914.157,234.822 914,245.5C 914.499,251.157 914.666,256.824 914.5,262.5C 907.451,263.282 900.784,262.115 894.5,259C 887.348,248.268 888.681,238.768 898.5,230.5 Z"/></g>
<g><path style="opacity:0.944" fill="#056945" d="M 1136.5,180.5 C 1143.83,180.5 1151.17,180.5 1158.5,180.5C 1158.5,207.833 1158.5,235.167 1158.5,262.5C 1175.84,262.667 1193.17,262.5 1210.5,262C 1204.56,248.561 1205.73,235.727 1214,223.5C 1223.26,214.302 1234.43,210.468 1247.5,212C 1259.71,212.888 1267.88,219.054 1272,230.5C 1273.44,247.444 1273.94,264.444 1273.5,281.5C 1227.83,281.5 1182.17,281.5 1136.5,281.5C 1136.5,247.833 1136.5,214.167 1136.5,180.5 Z M 1237.5,230.5 C 1243.78,229.554 1248.28,231.888 1251,237.5C 1252.37,245.764 1252.87,254.097 1252.5,262.5C 1230.81,263.984 1223.98,254.651 1232,234.5C 1233.81,233.023 1235.65,231.69 1237.5,230.5 Z"/></g>
<g><path style="opacity:0.893" fill="#056945" d="M 155.5,182.5 C 167.436,180.604 172.603,185.604 171,197.5C 166.211,206.095 159.878,207.428 152,201.5C 148.013,194.075 149.18,187.742 155.5,182.5 Z"/></g>
<g><path style="opacity:0.895" fill="#056945" d="M 544.5,182.5 C 555.428,182.984 559.594,188.651 557,199.5C 554.081,205.025 549.581,206.858 543.5,205C 541,203.833 539.167,202 538,199.5C 535.803,191.929 537.969,186.263 544.5,182.5 Z"/></g>
<g><path style="opacity:0.895" fill="#056945" d="M 568.5,182.5 C 578.782,182.957 582.949,188.29 581,198.5C 577.617,205.272 572.451,207.105 565.5,204C 560.006,198.873 559.172,193.039 563,186.5C 564.5,184.531 566.333,183.198 568.5,182.5 Z"/></g>
<g><path style="opacity:0.893" fill="#056945" d="M 657.5,182.5 C 668.597,183.673 672.431,189.673 669,200.5C 661.806,207.614 655.472,206.948 650,198.5C 648.221,190.949 650.721,185.616 657.5,182.5 Z"/></g>
<g><path style="opacity:0.897" fill="#056945" d="M 680.5,182.5 C 691.428,182.984 695.594,188.651 693,199.5C 690.081,205.025 685.581,206.858 679.5,205C 677,203.833 675.167,202 674,199.5C 671.657,191.825 673.824,186.158 680.5,182.5 Z"/></g>
<g><path style="opacity:0.899" fill="#056945" d="M 836.5,182.5 C 845.67,180.679 851.004,184.346 852.5,193.5C 852.038,200.77 848.205,204.77 841,205.5C 832.623,203.425 829.289,198.092 831,189.5C 831.967,186.379 833.8,184.046 836.5,182.5 Z"/></g>
<g><path style="opacity:0.893" fill="#056945" d="M 992.5,182.5 C 1000.92,181.867 1005.59,185.7 1006.5,194C 1005.44,203.06 1000.44,206.726 991.5,205C 989,203.833 987.167,202 986,199.5C 983.803,191.929 985.969,186.263 992.5,182.5 Z"/></g>
<g><path style="opacity:0.893" fill="#056945" d="M 1016.5,182.5 C 1029.39,184.274 1032.72,190.94 1026.5,202.5C 1018.68,207.648 1012.84,205.981 1009,197.5C 1007.82,190.516 1010.32,185.516 1016.5,182.5 Z"/></g>
<g><path style="opacity:0.901" fill="#056945" d="M 1102.5,182.5 C 1116.35,181.184 1121.18,187.184 1117,200.5C 1110.28,207.287 1103.94,206.954 1098,199.5C 1095.6,192.759 1097.1,187.092 1102.5,182.5 Z"/></g>
<g><path style="opacity:0.939" fill="#056945" d="M 1288.5,184.5 C 1295.83,184.5 1303.17,184.5 1310.5,184.5C 1310.5,216.833 1310.5,249.167 1310.5,281.5C 1303.17,281.5 1295.83,281.5 1288.5,281.5C 1288.5,249.167 1288.5,216.833 1288.5,184.5 Z"/></g>
<g><path style="opacity:1" fill="#2c7f5d" d="M 1572.5,194.5 C 1572.44,195.043 1572.11,195.376 1571.5,195.5C 1570.48,194.807 1569.48,194.141 1568.5,193.5C 1568.37,192.624 1568.7,191.957 1569.5,191.5C 1570.29,192.77 1571.29,193.77 1572.5,194.5 Z"/></g>
<g><path style="opacity:1" fill="#368667" d="M 1797.5,193.5 C 1793.31,194.351 1789.31,194.351 1785.5,193.5C 1786.71,192.77 1787.71,191.77 1788.5,190.5C 1789.17,191.167 1789.83,191.833 1790.5,192.5C 1791.83,189.833 1793.17,189.833 1794.5,192.5C 1796.37,189.771 1797.37,190.104 1797.5,193.5 Z"/></g>
<g><path style="opacity:1" fill="#3b876a" d="M 1806.5,200.5 C 1805.71,199.391 1805.21,198.058 1805,196.5C 1802.98,195.777 1801.15,194.777 1799.5,193.5C 1799.37,192.624 1799.7,191.957 1800.5,191.5C 1801.67,194.469 1803,194.802 1804.5,192.5C 1806.05,194.933 1806.72,197.6 1806.5,200.5 Z"/></g>
<g><path style="opacity:1" fill="#3a8768" d="M 1568.5,193.5 C 1563.77,193.562 1558.94,193.562 1554,193.5C 1552.56,195.155 1550.72,195.822 1548.5,195.5C 1548.28,194.325 1548.61,193.325 1549.5,192.5C 1551,194.802 1552.33,194.469 1553.5,191.5C 1555.16,192.875 1556.5,192.542 1557.5,190.5C 1558.83,193.167 1560.17,193.167 1561.5,190.5C 1562.83,193.167 1564.17,193.167 1565.5,190.5C 1566.29,191.77 1567.29,192.77 1568.5,193.5 Z"/></g>
<g><path style="opacity:1" fill="#eff5f2" d="M 1568.5,193.5 C 1569.48,194.141 1570.48,194.807 1571.5,195.5C 1572.11,195.376 1572.44,195.043 1572.5,194.5C 1573.17,194.833 1573.83,195.167 1574.5,195.5C 1576.12,200.256 1577.12,205.256 1577.5,210.5C 1577.63,211.376 1577.3,212.043 1576.5,212.5C 1572.34,210.815 1568.01,210.148 1563.5,210.5C 1563.5,209.167 1563.5,207.833 1563.5,206.5C 1559.16,206.622 1558.83,206.955 1562.5,207.5C 1562.5,208.5 1562.5,209.5 1562.5,210.5C 1557.45,210.337 1552.45,210.671 1547.5,211.5C 1546.88,208.023 1546.88,204.356 1547.5,200.5C 1547.22,198.585 1547.55,196.919 1548.5,195.5C 1550.72,195.822 1552.56,195.155 1554,193.5C 1558.94,193.562 1563.77,193.562 1568.5,193.5 Z"/></g>
<g><path style="opacity:1" fill="#338461" d="M 1574.5,195.5 C 1573.83,195.167 1573.17,194.833 1572.5,194.5C 1572.37,193.624 1572.7,192.957 1573.5,192.5C 1574.39,193.325 1574.72,194.325 1574.5,195.5 Z"/></g>
<g><path style="opacity:1" fill="#308160" d="M 1785.5,193.5 C 1783.68,195.441 1781.68,196.108 1779.5,195.5C 1779.38,192.795 1780.38,192.128 1782.5,193.5C 1783.88,191.023 1784.88,191.023 1785.5,193.5 Z"/></g>
<g><path style="opacity:1" fill="#eff5f2" d="M 1785.5,193.5 C 1789.31,194.351 1793.31,194.351 1797.5,193.5C 1798.17,193.5 1798.83,193.5 1799.5,193.5C 1801.15,194.777 1802.98,195.777 1805,196.5C 1805.21,198.058 1805.71,199.391 1806.5,200.5C 1806.42,203.781 1807.09,206.781 1808.5,209.5C 1809.34,209.842 1809.67,210.508 1809.5,211.5C 1808.85,211.804 1808.18,212.137 1807.5,212.5C 1802.29,210.912 1796.96,210.246 1791.5,210.5C 1791.5,209.5 1791.5,208.5 1791.5,207.5C 1795.17,206.955 1794.84,206.622 1790.5,206.5C 1790.5,207.833 1790.5,209.167 1790.5,210.5C 1785.99,210.148 1781.66,210.815 1777.5,212.5C 1776.7,212.043 1776.37,211.376 1776.5,210.5C 1776.88,205.256 1777.88,200.256 1779.5,195.5C 1781.68,196.108 1783.68,195.441 1785.5,193.5 Z"/></g>
<g><path style="opacity:1" fill="#fdfefe" d="M 1798.5,287.5 C 1790.26,302.403 1778.93,314.403 1764.5,323.5C 1755.29,282.308 1745.29,241.308 1734.5,200.5C 1735,199.479 1735.67,199.312 1736.5,200C 1754.92,210.294 1773.42,220.46 1792,230.5C 1793.78,249.692 1795.95,268.692 1798.5,287.5 Z"/></g>
<g><path style="opacity:1" fill="#fdfefe" d="M 1591.5,322.5 C 1591.63,323.376 1591.3,324.043 1590.5,324.5C 1577.68,314.688 1567.02,303.022 1558.5,289.5C 1559.51,269.733 1561.51,250.067 1564.5,230.5C 1583.17,220.5 1601.83,210.5 1620.5,200.5C 1611.38,241.071 1601.71,281.738 1591.5,322.5 Z"/></g>
<g><path style="opacity:1" fill="#35835a" d="M 1726.5,167.5 C 1729.27,175.893 1731.43,184.56 1733,193.5C 1733.27,195.329 1734.11,196.829 1735.5,198C 1748.67,205.167 1761.83,212.333 1775,219.5C 1775.23,218.263 1775.73,217.263 1776.5,216.5C 1776.24,217.978 1776.57,219.311 1777.5,220.5C 1782.75,223.374 1787.92,226.374 1793,229.5C 1795.64,247.096 1797.81,264.762 1799.5,282.5C 1798.55,283.919 1798.22,285.585 1798.5,287.5C 1795.95,268.692 1793.78,249.692 1792,230.5C 1773.42,220.46 1754.92,210.294 1736.5,200C 1735.67,199.312 1735,199.479 1734.5,200.5C 1745.29,241.308 1755.29,282.308 1764.5,323.5C 1764.5,324.167 1764.17,324.5 1763.5,324.5C 1750.82,272.807 1738.16,221.14 1725.5,169.5C 1726.34,169.158 1726.67,168.492 1726.5,167.5 Z"/></g>
<g><path style="opacity:1" fill="#438c78" d="M 1806.5,200.5 C 1807.91,203.219 1808.58,206.219 1808.5,209.5C 1807.09,206.781 1806.42,203.781 1806.5,200.5 Z"/></g>
<g><path style="opacity:1" fill="#197341" d="M 1681.5,226.5 C 1681.44,225.957 1681.11,225.624 1680.5,225.5C 1679.18,236.326 1679.18,246.993 1680.5,257.5C 1680.65,261.262 1681.32,264.928 1682.5,268.5C 1679.5,269.833 1676.5,269.833 1673.5,268.5C 1674.39,264.136 1675.39,259.803 1676.5,255.5C 1677.82,245.992 1677.82,236.325 1676.5,226.5C 1675.89,226.624 1675.56,226.957 1675.5,227.5C 1674.82,229.414 1674.32,231.414 1674,233.5C 1671.59,229.709 1670.92,225.709 1672,221.5C 1669.56,224.048 1667.89,227.048 1667,230.5C 1666.24,226.775 1666.41,223.108 1667.5,219.5C 1667.33,219.167 1667.17,218.833 1667,218.5C 1661.84,223.496 1661.17,222.496 1665,215.5C 1669.8,212.89 1669.64,212.224 1664.5,213.5C 1663.48,212.998 1663.31,212.332 1664,211.5C 1666.64,209.762 1669.48,208.429 1672.5,207.5C 1671.5,206.667 1670.5,205.833 1669.5,205C 1672.19,204.463 1674.69,204.963 1677,206.5C 1677.42,205.328 1678.09,204.328 1679,203.5C 1680,204.833 1681,206.167 1682,207.5C 1683.81,205.604 1685.97,205.104 1688.5,206C 1687.5,207 1686.5,208 1685.5,209C 1689.78,209.249 1693.12,211.082 1695.5,214.5C 1695.33,214.833 1695.17,215.167 1695,215.5C 1688.21,212.766 1687.88,213.432 1694,217.5C 1695.59,219.65 1696.26,221.983 1696,224.5C 1694.3,221.115 1691.8,218.948 1688.5,218C 1691.36,221.681 1692.19,225.848 1691,230.5C 1689.86,227.417 1688.53,224.417 1687,221.5C 1686.83,225.719 1685.83,229.719 1684,233.5C 1683.26,231.1 1682.42,228.767 1681.5,226.5 Z"/></g>
<g><path style="opacity:1" fill="#6ea694" d="M 1547.5,200.5 C 1546.88,204.356 1546.88,208.023 1547.5,211.5C 1546.65,212.625 1545.65,212.625 1544.5,211.5C 1545.13,207.627 1546.13,203.961 1547.5,200.5 Z"/></g>
<g><path style="opacity:1" fill="#277c52" d="M 1577.5,210.5 C 1578.57,212.347 1578.57,214.347 1577.5,216.5C 1567.05,211.561 1556.38,211.227 1545.5,215.5C 1544.77,214.292 1544.43,212.959 1544.5,211.5C 1545.65,212.625 1546.65,212.625 1547.5,211.5C 1552.45,210.671 1557.45,210.337 1562.5,210.5C 1562.5,209.5 1562.5,208.5 1562.5,207.5C 1558.83,206.955 1559.16,206.622 1563.5,206.5C 1563.5,207.833 1563.5,209.167 1563.5,210.5C 1568.01,210.148 1572.34,210.815 1576.5,212.5C 1577.3,212.043 1577.63,211.376 1577.5,210.5 Z"/></g>
<g><path style="opacity:1" fill="#257b51" d="M 1809.5,211.5 C 1809.57,212.959 1809.23,214.292 1808.5,215.5C 1797.59,211.188 1786.92,211.521 1776.5,216.5C 1775.43,214.347 1775.43,212.347 1776.5,210.5C 1776.37,211.376 1776.7,212.043 1777.5,212.5C 1781.66,210.815 1785.99,210.148 1790.5,210.5C 1790.5,209.167 1790.5,207.833 1790.5,206.5C 1794.84,206.622 1795.17,206.955 1791.5,207.5C 1791.5,208.5 1791.5,209.5 1791.5,210.5C 1796.96,210.246 1802.29,210.912 1807.5,212.5C 1808.18,212.137 1808.85,211.804 1809.5,211.5 Z"/></g>
<g><path style="opacity:0.943" fill="#056945" d="M 158.5,211.5 C 175.488,210.058 186.321,217.391 191,233.5C 195.768,262.035 183.935,277.868 155.5,281C 147.507,281.5 139.507,281.666 131.5,281.5C 130.104,299.161 120.771,309.661 103.5,313C 73.1049,316.273 58.4383,302.606 59.5,272C 59.4404,263.762 60.107,255.595 61.5,247.5C 69.2137,246.424 76.8804,245.091 84.5,243.5C 82.6794,252.257 81.3461,261.09 80.5,270C 80.2045,278.784 82.8712,286.45 88.5,293C 101.098,297.604 108.265,293.104 110,279.5C 110.5,257.503 110.667,235.503 110.5,213.5C 117.833,213.5 125.167,213.5 132.5,213.5C 132.334,218.511 132.501,223.511 133,228.5C 139.12,219.195 147.62,213.528 158.5,211.5 Z M 155.5,230.5 C 165.249,230.586 169.916,235.586 169.5,245.5C 169.532,253.964 165.532,259.464 157.5,262C 149.147,262.832 140.813,262.665 132.5,261.5C 135.121,247.195 142.787,236.862 155.5,230.5 Z"/></g>
<g><path style="opacity:0.94" fill="#056945" d="M 1004.5,211.5 C 1015.79,211.347 1026.79,213.013 1037.5,216.5C 1038.5,231.819 1038.83,247.152 1038.5,262.5C 1057.83,262.5 1077.17,262.5 1096.5,262.5C 1096.5,246.167 1096.5,229.833 1096.5,213.5C 1103.83,213.5 1111.17,213.5 1118.5,213.5C 1118.5,236.167 1118.5,258.833 1118.5,281.5C 1080.17,281.667 1041.83,281.5 1003.5,281C 983.09,279.757 972.756,268.923 972.5,248.5C 972.765,226.882 983.431,214.548 1004.5,211.5 Z M 1003.5,230.5 C 1007.88,230.114 1012.04,230.781 1016,232.5C 1016.5,242.494 1016.67,252.494 1016.5,262.5C 996.122,262.766 989.955,253.432 998,234.5C 999.812,233.023 1001.65,231.69 1003.5,230.5 Z"/></g>
<g><path style="opacity:1" fill="#fbfcfb" d="M 1577.5,216.5 C 1577.74,218.467 1577.41,220.301 1576.5,222C 1571.96,224.701 1567.29,227.201 1562.5,229.5C 1560.5,248.171 1558.5,266.838 1556.5,285.5C 1556.19,286.738 1555.69,286.738 1555,285.5C 1548.04,273.744 1542.87,261.244 1539.5,248C 1540.11,244.857 1540.44,241.69 1540.5,238.5C 1541.55,233.954 1542.55,229.287 1543.5,224.5C 1544.91,221.781 1545.58,218.781 1545.5,215.5C 1556.38,211.227 1567.05,211.561 1577.5,216.5 Z"/></g>
<g><path style="opacity:1" fill="#fbfcfb" d="M 1808.5,215.5 C 1809.45,216.919 1809.78,218.585 1809.5,220.5C 1809.22,223.829 1809.88,226.829 1811.5,229.5C 1811.22,232.829 1811.88,235.829 1813.5,238.5C 1813.42,241.781 1814.09,244.781 1815.5,247.5C 1812.84,261.165 1807.67,273.832 1800,285.5C 1799.52,284.552 1799.35,283.552 1799.5,282.5C 1797.81,264.762 1795.64,247.096 1793,229.5C 1787.92,226.374 1782.75,223.374 1777.5,220.5C 1776.57,219.311 1776.24,217.978 1776.5,216.5C 1786.92,211.521 1797.59,211.188 1808.5,215.5 Z"/></g>
<g><path style="opacity:1" fill="#448d79" d="M 1545.5,215.5 C 1545.58,218.781 1544.91,221.781 1543.5,224.5C 1543.42,221.219 1544.09,218.219 1545.5,215.5 Z"/></g>
<g><path style="opacity:1" fill="#559786" d="M 1809.5,220.5 C 1810.91,223.219 1811.58,226.219 1811.5,229.5C 1809.88,226.829 1809.22,223.829 1809.5,220.5 Z"/></g>
<g><path style="opacity:1" fill="#449069" d="M 1675.5,227.5 C 1675.56,226.957 1675.89,226.624 1676.5,226.5C 1677.82,236.325 1677.82,245.992 1676.5,255.5C 1676.83,245.985 1676.49,236.652 1675.5,227.5 Z"/></g>
<g><path style="opacity:1" fill="#539586" d="M 1811.5,229.5 C 1812.91,232.219 1813.58,235.219 1813.5,238.5C 1811.88,235.829 1811.22,232.829 1811.5,229.5 Z"/></g>
<g><path style="opacity:1" fill="#438c78" d="M 1813.5,238.5 C 1814.91,241.219 1815.58,244.219 1815.5,247.5C 1814.09,244.781 1813.42,241.781 1813.5,238.5 Z"/></g>
<g><path style="opacity:1" fill="#afcfbf" d="M 1681.5,226.5 C 1680.51,236.653 1680.17,246.986 1680.5,257.5C 1679.18,246.993 1679.18,236.326 1680.5,225.5C 1681.11,225.624 1681.44,225.957 1681.5,226.5 Z"/></g>
<g><path style="opacity:1" fill="#197341" d="M 1633.5,255.5 C 1634.95,254.387 1636.61,254.22 1638.5,255C 1653.02,259.344 1666.19,266.178 1678,275.5C 1691.24,264.456 1706.41,258.29 1723.5,257C 1708.46,261.434 1694.96,268.6 1683,278.5C 1684.77,282.461 1687.6,285.794 1691.5,288.5C 1692.62,287.086 1693.62,285.586 1694.5,284C 1699.1,282.417 1700.93,283.917 1700,288.5C 1693.74,289.178 1693.24,290.844 1698.5,293.5C 1700.64,292.047 1702.48,292.38 1704,294.5C 1704.71,296.367 1704.21,297.867 1702.5,299C 1697.65,300.163 1693.82,298.663 1691,294.5C 1688.39,297.74 1685.22,299.073 1681.5,298.5C 1680.52,296.902 1680.35,295.235 1681,293.5C 1683.17,293.067 1685.34,292.734 1687.5,292.5C 1684.8,288.967 1681.63,285.967 1678,283.5C 1674.37,285.967 1671.2,288.967 1668.5,292.5C 1670.34,292.755 1672.34,292.922 1674.5,293C 1677.14,296.186 1676.3,298.353 1672,299.5C 1669.33,298.33 1667,296.663 1665,294.5C 1661.82,297.844 1657.98,299.011 1653.5,298C 1651.47,296.806 1651.14,295.306 1652.5,293.5C 1654.77,292.686 1657.1,292.186 1659.5,292C 1660.17,291.333 1660.83,290.667 1661.5,290C 1656.03,289.591 1654.69,287.258 1657.5,283C 1658.5,282.333 1659.5,282.333 1660.5,283C 1662.02,284.685 1663.68,286.185 1665.5,287.5C 1669.51,285.03 1672.01,281.696 1673,277.5C 1660.83,268.494 1647.66,261.161 1633.5,255.5 Z"/></g>
<g><path style="opacity:1" fill="#3c875d" d="M 1628.5,173.5 C 1628.33,174.492 1628.66,175.158 1629.5,175.5C 1617.41,224.983 1605.07,274.316 1592.5,323.5C 1592.5,322.833 1592.17,322.5 1591.5,322.5C 1601.71,281.738 1611.38,241.071 1620.5,200.5C 1601.83,210.5 1583.17,220.5 1564.5,230.5C 1561.51,250.067 1559.51,269.733 1558.5,289.5C 1557.83,288.167 1557.17,286.833 1556.5,285.5C 1558.5,266.838 1560.5,248.171 1562.5,229.5C 1567.29,227.201 1571.96,224.701 1576.5,222C 1577.41,220.301 1577.74,218.467 1577.5,216.5C 1578.16,217.718 1578.83,219.051 1579.5,220.5C 1593.66,213.254 1607.66,205.754 1621.5,198C 1623.77,189.745 1626.1,181.579 1628.5,173.5 Z"/></g>
<g><path style="opacity:0.893" fill="#056945" d="M 308.5,290.5 C 315.78,289.387 320.28,292.387 322,299.5C 322.416,310.7 317.25,314.867 306.5,312C 301.789,307.86 300.289,302.694 302,296.5C 303.494,293.686 305.66,291.686 308.5,290.5 Z"/></g>
<g><path style="opacity:0.89" fill="#056945" d="M 331.5,290.5 C 342.762,289.993 347.262,295.326 345,306.5C 341.473,312.898 336.307,314.731 329.5,312C 322.36,304.027 323.027,296.86 331.5,290.5 Z"/></g>
<g><path style="opacity:0.944" fill="#056945" d="M 77.5,361.5 C 83.2213,361.369 88.888,361.869 94.5,363C 103.151,365.281 107.485,370.947 107.5,380C 107.237,388.536 103.237,394.536 95.5,398C 100.833,406.333 106.167,414.667 111.5,423C 105.472,423.83 99.4724,423.664 93.5,422.5C 89.6667,415.5 85.8333,408.5 82,401.5C 81.5003,408.826 81.3337,416.159 81.5,423.5C 76.8333,423.5 72.1667,423.5 67.5,423.5C 67.5,403.167 67.5,382.833 67.5,362.5C 71.0419,362.813 74.3752,362.479 77.5,361.5 Z M 81.5,374.5 C 87.7658,373.117 91.4325,375.45 92.5,381.5C 91.5818,387.723 87.9151,390.39 81.5,389.5C 81.5,384.5 81.5,379.5 81.5,374.5 Z"/></g>
<g><path style="opacity:0.944" fill="#056945" d="M 409.5,361.5 C 415.221,361.369 420.888,361.869 426.5,363C 435.151,365.281 439.485,370.947 439.5,380C 439.237,388.536 435.237,394.536 427.5,398C 432.833,406.333 438.167,414.667 443.5,423C 437.472,423.83 431.472,423.664 425.5,422.5C 421.667,415.5 417.833,408.5 414,401.5C 413.5,408.826 413.334,416.159 413.5,423.5C 408.833,423.5 404.167,423.5 399.5,423.5C 399.5,403.167 399.5,382.833 399.5,362.5C 403.042,362.813 406.375,362.479 409.5,361.5 Z M 413.5,374.5 C 419.766,373.117 423.433,375.45 424.5,381.5C 423.582,387.723 419.915,390.39 413.5,389.5C 413.5,384.5 413.5,379.5 413.5,374.5 Z"/></g>
<g><path style="opacity:0.932" fill="#056945" d="M 522.5,361.5 C 530.731,360.914 538.731,361.914 546.5,364.5C 545.477,368.113 544.644,371.779 544,375.5C 543.692,376.308 543.192,376.975 542.5,377.5C 534.855,374.045 527.188,373.878 519.5,377C 509.284,387.381 508.951,398.048 518.5,409C 522.595,411.22 526.928,411.887 531.5,411C 532.479,404.256 532.812,397.422 532.5,390.5C 537.167,390.5 541.833,390.5 546.5,390.5C 546.5,400.833 546.5,411.167 546.5,421.5C 537.036,424.306 527.37,425.14 517.5,424C 503.196,419.755 496.196,410.088 496.5,395C 496.732,376.942 505.399,365.775 522.5,361.5 Z"/></g>
<g><path style="opacity:0.936" fill="#056945" d="M 606.5,361.5 C 624.295,358.299 635.462,365.299 640,382.5C 641.822,393.44 640.156,403.774 635,413.5C 624.097,425.735 611.263,428.235 596.5,421C 590.283,416.401 586.783,410.234 586,402.5C 583.541,388.822 587.041,376.989 596.5,367C 599.767,364.87 603.1,363.037 606.5,361.5 Z M 611.5,374.5 C 616.067,374.521 619.901,376.188 623,379.5C 627.948,389.032 627.615,398.366 622,407.5C 611.981,414.327 604.981,411.993 601,400.5C 599.902,393.615 600.569,386.949 603,380.5C 605.322,377.605 608.155,375.605 611.5,374.5 Z"/></g>
<g><path style="opacity:0.927" fill="#056945" d="M 993.5,361.5 C 998.701,361.67 1003.7,362.67 1008.5,364.5C 1007.75,368.835 1006.92,373.168 1006,377.5C 999.745,374.69 993.578,374.857 987.5,378C 985.623,380.251 984.123,382.751 983,385.5C 981.902,392.385 982.569,399.051 985,405.5C 991.225,411.945 998.225,412.945 1006,408.5C 1007.25,413.093 1008.08,417.759 1008.5,422.5C 999.879,424.863 991.213,425.03 982.5,423C 971.42,417.359 966.087,408.192 966.5,395.5C 966.073,376.295 975.073,364.961 993.5,361.5 Z"/></g>
<g><path style="opacity:0.946" fill="#056945" d="M 1059.5,361.5 C 1067.09,361.227 1074.42,362.393 1081.5,365C 1089.9,373.076 1091.74,382.576 1087,393.5C 1081.32,401.588 1073.49,405.254 1063.5,404.5C 1063.5,410.833 1063.5,417.167 1063.5,423.5C 1058.83,423.5 1054.17,423.5 1049.5,423.5C 1049.5,403.167 1049.5,382.833 1049.5,362.5C 1053.04,362.813 1056.38,362.479 1059.5,361.5 Z M 1063.5,374.5 C 1073.51,374.155 1077.01,378.822 1074,388.5C 1071.36,391.448 1068.19,392.448 1064.5,391.5C 1063.5,385.872 1063.17,380.206 1063.5,374.5 Z"/></g>
<g><path style="opacity:0.943" fill="#056945" d="M 121.5,362.5 C 126.167,362.5 130.833,362.5 135.5,362.5C 135.5,382.833 135.5,403.167 135.5,423.5C 130.833,423.5 126.167,423.5 121.5,423.5C 121.5,403.167 121.5,382.833 121.5,362.5 Z"/></g>
<g><path style="opacity:0.928" fill="#056945" d="M 143.5,363.5 C 148.68,362.185 154.014,362.185 159.5,363.5C 162.667,371.167 165.833,378.833 169,386.5C 172.463,378.58 175.63,370.58 178.5,362.5C 183.544,362.173 188.544,362.506 193.5,363.5C 187.94,376.286 182.107,388.953 176,401.5C 175.5,408.826 175.334,416.159 175.5,423.5C 170.833,423.5 166.167,423.5 161.5,423.5C 161.666,416.159 161.5,408.826 161,401.5C 155.391,388.623 149.558,375.956 143.5,363.5 Z"/></g>
<g><path style="opacity:0.939" fill="#056945" d="M 209.5,362.5 C 215.167,362.5 220.833,362.5 226.5,362.5C 232.678,382.88 239.012,403.213 245.5,423.5C 240.489,423.666 235.489,423.499 230.5,423C 229.199,419.596 228.199,416.096 227.5,412.5C 220.833,412.5 214.167,412.5 207.5,412.5C 207.042,416.166 206.042,419.666 204.5,423C 199.833,423.667 195.167,423.667 190.5,423C 197.133,402.935 203.466,382.768 209.5,362.5 Z M 216.5,381.5 C 217.586,381.62 218.253,382.287 218.5,383.5C 219.858,388.933 221.525,394.266 223.5,399.5C 219.5,400.833 215.5,400.833 211.5,399.5C 213.794,393.657 215.46,387.657 216.5,381.5 Z"/></g>
<g><path style="opacity:0.946" fill="#056945" d="M 255.5,362.5 C 265.172,362.334 274.839,362.5 284.5,363C 298.725,367.266 305.059,376.933 303.5,392C 303.999,409.704 295.666,420.371 278.5,424C 270.805,424.691 263.139,424.525 255.5,423.5C 255.5,403.167 255.5,382.833 255.5,362.5 Z M 269.5,374.5 C 283.002,373.003 289.336,379.003 288.5,392.5C 289.162,405.838 282.829,412.171 269.5,411.5C 269.5,399.167 269.5,386.833 269.5,374.5 Z"/></g>
<g><path style="opacity:0.947" fill="#056945" d="M 315.5,362.5 C 320.167,362.5 324.833,362.5 329.5,362.5C 329.5,370.167 329.5,377.833 329.5,385.5C 336.167,385.5 342.833,385.5 349.5,385.5C 349.5,377.833 349.5,370.167 349.5,362.5C 354.167,362.5 358.833,362.5 363.5,362.5C 363.5,382.833 363.5,403.167 363.5,423.5C 358.833,423.5 354.167,423.5 349.5,423.5C 349.5,415.167 349.5,406.833 349.5,398.5C 342.833,398.5 336.167,398.5 329.5,398.5C 329.5,406.833 329.5,415.167 329.5,423.5C 324.833,423.5 320.167,423.5 315.5,423.5C 315.5,403.167 315.5,382.833 315.5,362.5 Z"/></g>
<g><path style="opacity:0.976" fill="#056945" d="M 452.5,362.5 C 463.167,362.5 473.833,362.5 484.5,362.5C 484.5,366.5 484.5,370.5 484.5,374.5C 478.5,374.5 472.5,374.5 466.5,374.5C 466.5,378.5 466.5,382.5 466.5,386.5C 472.167,386.5 477.833,386.5 483.5,386.5C 483.5,390.5 483.5,394.5 483.5,398.5C 477.833,398.5 472.167,398.5 466.5,398.5C 466.5,402.833 466.5,407.167 466.5,411.5C 472.5,411.5 478.5,411.5 484.5,411.5C 484.5,415.5 484.5,419.5 484.5,423.5C 473.833,423.5 463.167,423.5 452.5,423.5C 452.5,403.167 452.5,382.833 452.5,362.5 Z"/></g>
<g><path style="opacity:0.943" fill="#056945" d="M 560.5,362.5 C 565.167,362.5 569.833,362.5 574.5,362.5C 574.5,382.833 574.5,403.167 574.5,423.5C 569.833,423.5 565.167,423.5 560.5,423.5C 560.5,403.167 560.5,382.833 560.5,362.5 Z"/></g>
<g><path style="opacity:0.947" fill="#056945" d="M 652.5,362.5 C 658.537,362.171 664.537,362.504 670.5,363.5C 676.606,375.378 682.439,387.378 688,399.5C 687.748,387.185 687.581,374.851 687.5,362.5C 692.167,362.5 696.833,362.5 701.5,362.5C 701.5,382.833 701.5,403.167 701.5,423.5C 695.132,423.83 688.798,423.496 682.5,422.5C 676.903,410.876 671.403,399.209 666,387.5C 665.5,399.495 665.333,411.495 665.5,423.5C 661.167,423.5 656.833,423.5 652.5,423.5C 652.5,403.167 652.5,382.833 652.5,362.5 Z"/></g>
<g><path style="opacity:0.941" fill="#056945" d="M 742.5,362.5 C 748.093,362.193 753.593,362.527 759,363.5C 762.403,375.207 765.903,386.874 769.5,398.5C 773.153,386.891 776.653,375.224 780,363.5C 785.407,362.527 790.907,362.193 796.5,362.5C 798.992,382.778 801.992,402.945 805.5,423C 800.511,423.499 795.511,423.666 790.5,423.5C 789.176,411.395 787.342,399.395 785,387.5C 782.612,398.998 779.612,410.331 776,421.5C 773.959,422.752 771.625,423.419 769,423.5C 766.576,423.47 764.243,423.137 762,422.5C 758.043,410.672 754.71,398.672 752,386.5C 750.667,398.5 749.333,410.5 748,422.5C 743.218,423.802 738.385,423.802 733.5,422.5C 736.932,402.572 739.932,382.572 742.5,362.5 Z"/></g>
<g><path style="opacity:0.932" fill="#056945" d="M 816.5,362.5 C 821.167,362.5 825.833,362.5 830.5,362.5C 830.333,377.504 830.5,392.504 831,407.5C 832.873,411.027 835.873,412.693 840,412.5C 844.373,412.485 847.373,410.485 849,406.5C 849.5,391.837 849.667,377.17 849.5,362.5C 854.167,362.5 858.833,362.5 863.5,362.5C 863.94,378.89 863.44,395.224 862,411.5C 857.569,421.226 849.903,425.892 839,425.5C 829.531,425.605 822.531,421.605 818,413.5C 816.543,396.57 816.043,379.57 816.5,362.5 Z"/></g>
<g><path style="opacity:0.947" fill="#056945" d="M 877.5,362.5 C 883.537,362.171 889.537,362.504 895.5,363.5C 901.606,375.378 907.439,387.378 913,399.5C 912.748,387.185 912.581,374.851 912.5,362.5C 917.167,362.5 921.833,362.5 926.5,362.5C 926.5,382.833 926.5,403.167 926.5,423.5C 920.132,423.83 913.798,423.496 907.5,422.5C 901.903,410.876 896.403,399.209 891,387.5C 890.5,399.495 890.333,411.495 890.5,423.5C 886.167,423.5 881.833,423.5 877.5,423.5C 877.5,403.167 877.5,382.833 877.5,362.5 Z"/></g>
<g><path style="opacity:0.943" fill="#056945" d="M 941.5,362.5 C 946.167,362.5 950.833,362.5 955.5,362.5C 955.5,382.833 955.5,403.167 955.5,423.5C 950.833,423.5 946.167,423.5 941.5,423.5C 941.5,403.167 941.5,382.833 941.5,362.5 Z"/></g>
<g><path style="opacity:0.943" fill="#056945" d="M 1021.5,362.5 C 1026.17,362.5 1030.83,362.5 1035.5,362.5C 1035.5,382.833 1035.5,403.167 1035.5,423.5C 1030.83,423.5 1026.17,423.5 1021.5,423.5C 1021.5,403.167 1021.5,382.833 1021.5,362.5 Z"/></g>
<g><path style="opacity:0.939" fill="#056945" d="M 1107.5,362.5 C 1113.17,362.5 1118.83,362.5 1124.5,362.5C 1130.68,382.88 1137.01,403.213 1143.5,423.5C 1138.49,423.666 1133.49,423.499 1128.5,423C 1127.2,419.596 1126.2,416.096 1125.5,412.5C 1118.83,412.5 1112.17,412.5 1105.5,412.5C 1105.04,416.166 1104.04,419.666 1102.5,423C 1097.83,423.667 1093.17,423.667 1088.5,423C 1095.13,402.935 1101.47,382.768 1107.5,362.5 Z M 1114.5,381.5 C 1115.59,381.62 1116.25,382.287 1116.5,383.5C 1117.86,388.933 1119.52,394.266 1121.5,399.5C 1117.5,400.833 1113.5,400.833 1109.5,399.5C 1111.79,393.657 1113.46,387.657 1114.5,381.5 Z"/></g>
<g><path style="opacity:0.949" fill="#056945" d="M 1153.5,362.5 C 1158.17,362.5 1162.83,362.5 1167.5,362.5C 1167.5,378.5 1167.5,394.5 1167.5,410.5C 1173.17,410.5 1178.83,410.5 1184.5,410.5C 1184.5,414.833 1184.5,419.167 1184.5,423.5C 1174.17,423.5 1163.83,423.5 1153.5,423.5C 1153.5,403.167 1153.5,382.833 1153.5,362.5 Z"/></g>
<g><path style="opacity:0.943" fill="#056945" d="M 1194.5,362.5 C 1199.17,362.5 1203.83,362.5 1208.5,362.5C 1208.5,382.833 1208.5,403.167 1208.5,423.5C 1203.83,423.5 1199.17,423.5 1194.5,423.5C 1194.5,403.167 1194.5,382.833 1194.5,362.5 Z"/></g>
<g><path style="opacity:0.937" fill="#056945" d="M 1219.5,362.5 C 1233.17,362.5 1246.83,362.5 1260.5,362.5C 1260.5,366.833 1260.5,371.167 1260.5,375.5C 1255.83,375.5 1251.17,375.5 1246.5,375.5C 1246.5,391.5 1246.5,407.5 1246.5,423.5C 1241.83,423.5 1237.17,423.5 1232.5,423.5C 1232.5,407.5 1232.5,391.5 1232.5,375.5C 1228.17,375.5 1223.83,375.5 1219.5,375.5C 1219.5,371.167 1219.5,366.833 1219.5,362.5 Z"/></g>
<g><path style="opacity:0.928" fill="#056945" d="M 1266.5,363.5 C 1271.68,362.185 1277.01,362.185 1282.5,363.5C 1285.67,371.167 1288.83,378.833 1292,386.5C 1295.46,378.58 1298.63,370.58 1301.5,362.5C 1306.54,362.173 1311.54,362.506 1316.5,363.5C 1310.94,376.286 1305.11,388.953 1299,401.5C 1298.5,408.826 1298.33,416.159 1298.5,423.5C 1293.83,423.5 1289.17,423.5 1284.5,423.5C 1284.67,416.159 1284.5,408.826 1284,401.5C 1278.39,388.623 1272.56,375.956 1266.5,363.5 Z"/></g>
<g><path style="opacity:1" fill="#fafcfb" d="M 1797.5,362.5 C 1799.2,364.305 1800.03,366.639 1800,369.5C 1817.02,386.016 1834.18,402.349 1851.5,418.5C 1848.19,422.978 1844.69,427.311 1841,431.5C 1817.74,410.116 1794.57,388.616 1771.5,367C 1776.45,367.492 1781.45,367.492 1786.5,367C 1790.58,366.245 1794.25,364.745 1797.5,362.5 Z"/></g>
<g><path style="opacity:1" fill="#fbfcfc" d="M 1766.5,374.5 C 1785.11,390.775 1803.11,407.775 1820.5,425.5C 1807.53,439.803 1792.87,451.969 1776.5,462C 1779.51,474.992 1775.17,484.659 1763.5,491C 1757.58,491.807 1751.75,491.641 1746,490.5C 1745.83,490.167 1745.67,489.833 1745.5,489.5C 1756.78,487.398 1761.62,480.732 1760,469.5C 1755.33,462.167 1750.67,454.833 1746,447.5C 1743.99,446.331 1741.83,445.665 1739.5,445.5C 1743.09,437.159 1745.75,428.492 1747.5,419.5C 1752.17,426.5 1756.83,433.5 1761.5,440.5C 1772.21,434.628 1781.38,427.295 1789,418.5C 1782.83,413 1776.67,407.5 1770.5,402C 1768.19,401.503 1765.86,401.337 1763.5,401.5C 1766.1,392.71 1767.1,383.71 1766.5,374.5 Z"/></g>
<g><path style="opacity:1" fill="#fafcfb" d="M 1594.5,380.5 C 1604.45,380.096 1608.62,384.763 1607,394.5C 1603.72,400.109 1598.89,401.942 1592.5,400C 1585.33,392.518 1586,386.018 1594.5,380.5 Z"/></g>
<g><path style="opacity:1" fill="#fbfcfc" d="M 1561.5,381.5 C 1562.5,381.5 1563.5,381.5 1564.5,381.5C 1564.68,383.936 1564.02,386.103 1562.5,388C 1554.89,390.486 1547.22,392.819 1539.5,395C 1528.13,398.916 1523.3,406.749 1525,418.5C 1531.35,428.293 1538.68,428.96 1547,420.5C 1549.07,415.426 1548.91,410.426 1546.5,405.5C 1554.2,405.347 1561.54,403.68 1568.5,400.5C 1568.83,402 1569.17,403.5 1569.5,405C 1568.98,408.917 1568.48,412.75 1568,416.5C 1582.38,408.954 1597.21,407.788 1612.5,413C 1616.03,415.707 1617.2,419.207 1616,423.5C 1610.87,439.896 1605.53,456.229 1600,472.5C 1581.18,464.827 1564.35,454.16 1549.5,440.5C 1531.04,449.184 1518.88,443.85 1513,424.5C 1510.85,408.291 1517.02,396.458 1531.5,389C 1541.58,386.159 1551.58,383.659 1561.5,381.5 Z"/></g>
<g><path style="opacity:1" fill="#fbfcfc" d="M 1636.5,389.5 C 1639.91,397.914 1644.91,405.247 1651.5,411.5C 1648.81,413.356 1646.64,415.689 1645,418.5C 1640.24,431.276 1636.41,444.276 1633.5,457.5C 1659.67,463.495 1686.01,464.161 1712.5,459.5C 1711.66,453.818 1708.66,449.651 1703.5,447C 1710.95,441.389 1716.28,434.223 1719.5,425.5C 1725.9,443.702 1731.9,462.035 1737.5,480.5C 1694.41,493.537 1651.75,492.37 1609.5,477C 1608.98,476.439 1608.64,475.772 1608.5,475C 1617.74,446.435 1627.08,417.935 1636.5,389.5 Z"/></g>
<g><path style="opacity:1" fill="#0f6c4a" d="M 1577.5,424.5 C 1583.23,424.212 1588.9,424.546 1594.5,425.5C 1594.83,426.5 1595.17,427.5 1595.5,428.5C 1594.83,431.846 1594.16,435.179 1593.5,438.5C 1586.73,435.736 1580.73,431.736 1575.5,426.5C 1576.24,425.818 1576.91,425.151 1577.5,424.5 Z"/></g>
<g><path style="opacity:1" fill="#f9fbfa" d="M 1656.5,494.5 C 1667.01,493.508 1671.51,498.175 1670,508.5C 1667.08,514.025 1662.58,515.858 1656.5,514C 1650.98,511.081 1649.14,506.581 1651,500.5C 1652.36,497.977 1654.19,495.977 1656.5,494.5 Z"/></g>
<g><path style="opacity:1" fill="#f8fbfa" d="M 1692.5,493.5 C 1701.82,493.652 1705.99,498.319 1705,507.5C 1698.62,516.821 1692.28,516.821 1686,507.5C 1685.33,504.833 1685.33,502.167 1686,499.5C 1688.06,497.266 1690.23,495.266 1692.5,493.5 Z"/></g>
</svg>
