<?xml version="1.0" encoding="UTF-8"?>
<!DOCTYPE svg PUBLIC "-//W3C//DTD SVG 1.1//EN" "http://www.w3.org/Graphics/SVG/1.1/DTD/svg11.dtd">
<svg xmlns="http://www.w3.org/2000/svg" version="1.1" width="2000px" height="2000px" style="shape-rendering:geometricPrecision; text-rendering:geometricPrecision; image-rendering:optimizeQuality; fill-rule:evenodd; clip-rule:evenodd" xmlns:xlink="http://www.w3.org/1999/xlink">
<g><path style="opacity:0.908" fill="#056945" d="M 963.5,70.5 C 1222.64,64.568 1446.97,148.735 1636.5,323C 1817.61,497.442 1914.77,710.942 1928,963.5C 1934.38,1222.13 1850.71,1446.13 1677,1635.5C 1502.41,1817.19 1288.57,1914.69 1035.5,1928C 777.929,1934.44 554.596,1851.44 365.5,1679C 182.293,1504.3 84.1262,1289.8 71,1035.5C 64.7,792.365 139.367,578.365 295,393.5C 472.353,193.417 695.186,85.7505 963.5,70.5 Z M 959.5,83.5 C 1228.78,76.7133 1458.95,167.047 1650,354.5C 1813.68,522.274 1902.01,723.94 1915,959.5C 1922.17,1231.51 1830.34,1463.34 1639.5,1655C 1472.28,1815.25 1272.28,1901.92 1039.5,1915C 786.455,1922.57 566.455,1842.23 379.5,1674C 196.927,1502.55 98.4265,1291.05 84,1039.5C 76.7974,786.029 157.464,565.696 326,378.5C 497.688,197.093 708.855,98.76 959.5,83.5 Z"/></g>
<g><path style="opacity:0.729" fill="#81aae5" d="M 1049.5,116.5 C 983.101,113.288 917.101,116.955 851.5,127.5C 916.949,113.67 982.949,110.003 1049.5,116.5 Z"/></g>
<g><path style="opacity:0.997" fill="#056946" d="M 1049.5,116.5 C 1279.48,132.802 1474.98,222.468 1636,385.5C 1807.25,567.842 1889.58,784.842 1883,1036.5C 1870.05,1271.18 1780.55,1470.68 1614.5,1635C 1431.73,1807.13 1214.07,1889.79 961.5,1883C 697.116,1867.39 480.616,1758.56 312,1556.5C 170.091,1377.41 105.091,1173.08 117,943.5C 135.378,707.606 230.211,509.106 401.5,348C 529.756,231.711 679.756,158.211 851.5,127.5C 917.101,116.955 983.101,113.288 1049.5,116.5 Z"/></g>
<g><path style="opacity:1" fill="#fcfdfd" d="M 976.5,120.5 C 1152.06,118.028 1299.56,180.361 1419,307.5C 1534.73,440.385 1581.39,594.719 1559,770.5C 1529.04,945.338 1439.21,1079.51 1289.5,1173C 1159.04,1248.13 1020.04,1270.13 872.5,1239C 714.701,1199.79 593.868,1110.96 510,972.5C 441.248,850.994 418.582,721.327 442,583.5C 477.074,415.369 567.574,286.869 713.5,198C 795.027,150.988 882.694,125.154 976.5,120.5 Z"/></g>
<g><path style="opacity:1" fill="#0c6b49" d="M 1366.5,1076.5 C 1362.23,1079.1 1358.56,1082.43 1355.5,1086.5C 1352.57,1087.76 1350.24,1089.76 1348.5,1092.5C 1345.57,1093.76 1343.24,1095.76 1341.5,1098.5C 1339.25,1099.08 1337.58,1100.41 1336.5,1102.5C 1334.25,1103.08 1332.58,1104.41 1331.5,1106.5C 1329.6,1106.74 1328.26,1107.74 1327.5,1109.5C 1325.25,1110.08 1323.58,1111.41 1322.5,1113.5C 1311.22,1120.78 1300.22,1128.45 1289.5,1136.5C 1287.33,1136.75 1285.66,1137.75 1284.5,1139.5C 1282.97,1139.43 1281.97,1140.09 1281.5,1141.5C 1277.83,1143 1274.49,1145 1271.5,1147.5C 1269.33,1147.75 1267.66,1148.75 1266.5,1150.5C 1136.34,1221.73 999.342,1238.89 855.5,1202C 796.18,1184.86 741.18,1159.03 690.5,1124.5C 688.704,1122.1 686.37,1120.43 683.5,1119.5C 682.738,1117.74 681.404,1116.74 679.5,1116.5C 678.738,1114.74 677.404,1113.74 675.5,1113.5C 674.738,1111.74 673.404,1110.74 671.5,1110.5C 670.421,1108.46 668.754,1107.12 666.5,1106.5C 665.421,1104.46 663.754,1103.12 661.5,1102.5C 660.738,1100.74 659.404,1099.74 657.5,1099.5C 654.585,1096.04 651.252,1093.04 647.5,1090.5C 646.738,1088.74 645.404,1087.74 643.5,1087.5C 519.56,973.888 459.393,832.555 463,663.5C 473.942,499.766 542.776,366.599 669.5,264C 807.78,160.607 961.446,128.273 1130.5,167C 1297.13,213.378 1416.96,314.878 1490,471.5C 1541.33,592.143 1548.66,715.476 1512,841.5C 1483.76,932.706 1435.26,1011.04 1366.5,1076.5 Z"/></g>
<g><path style="opacity:1" fill="#85aceb" d="M 1501.5,826.5 C 1492.66,784.814 1483.66,743.147 1474.5,701.5C 1475.75,699.677 1476.75,697.677 1477.5,695.5C 1472.27,670.464 1466.94,645.464 1461.5,620.5C 1459.6,619.534 1457.6,619.201 1455.5,619.5C 1455.5,621.833 1455.5,624.167 1455.5,626.5C 1454.07,626.421 1452.74,626.754 1451.5,627.5C 1450.78,625.518 1449.62,623.851 1448,622.5C 1447.5,620.19 1447.34,617.857 1447.5,615.5C 1445.5,615.5 1443.5,615.5 1441.5,615.5C 1441.99,619.527 1440.49,622.527 1437,624.5C 1436.78,622.119 1435.61,620.453 1433.5,619.5C 1433.5,617.167 1433.5,614.833 1433.5,612.5C 1431.17,612.5 1428.83,612.5 1426.5,612.5C 1426.5,615.167 1426.5,617.833 1426.5,620.5C 1424.62,620.712 1423.28,621.712 1422.5,623.5C 1421.85,621.851 1420.85,620.518 1419.5,619.5C 1418.53,617.257 1418.19,614.924 1418.5,612.5C 1416.5,612.5 1414.5,612.5 1412.5,612.5C 1412.81,614.924 1412.47,617.257 1411.5,619.5C 1409.8,620.364 1408.64,621.697 1408,623.5C 1407.8,621.714 1406.97,620.381 1405.5,619.5C 1404.53,617.604 1404.2,615.604 1404.5,613.5C 1402.5,613.5 1400.5,613.5 1398.5,613.5C 1399.49,618.173 1397.82,621.506 1393.5,623.5C 1390.44,622.19 1389.11,619.857 1389.5,616.5C 1387.74,615.539 1385.74,615.205 1383.5,615.5C 1383.5,617.833 1383.5,620.167 1383.5,622.5C 1381.39,623.453 1380.22,625.119 1380,627.5C 1378.95,625.893 1377.45,625.227 1375.5,625.5C 1375.5,623.5 1375.5,621.5 1375.5,619.5C 1373.5,619.5 1371.5,619.5 1369.5,619.5C 1364.31,644.597 1359.31,669.764 1354.5,695C 1354.22,698.06 1355.56,700.06 1358.5,701C 1356.62,706.025 1355.12,711.192 1354,716.5C 1353.59,716.957 1353.09,717.291 1352.5,717.5C 1302.67,690.754 1253.01,663.754 1203.5,636.5C 1194.04,600.661 1185.21,564.661 1177,528.5C 1176.5,528 1176,527.5 1175.5,527C 1180.45,522.715 1185.45,519.548 1190.5,517.5C 1172.85,438.91 1155.52,360.244 1138.5,281.5C 1133.17,281.5 1127.83,281.5 1122.5,281.5C 1122.5,287.833 1122.5,294.167 1122.5,300.5C 1119.5,300.5 1116.5,300.5 1113.5,300.5C 1113.5,302.167 1113.5,303.833 1113.5,305.5C 1110.5,305.5 1107.5,305.5 1104.5,305.5C 1106.59,296.624 1103.25,291.624 1094.5,290.5C 1094.5,283.167 1094.5,275.833 1094.5,268.5C 1088.97,268.179 1083.64,268.512 1078.5,269.5C 1078.5,275.167 1078.5,280.833 1078.5,286.5C 1073.43,285.895 1069.77,287.895 1067.5,292.5C 1066.7,293.952 1066.2,295.618 1066,297.5C 1065.72,296.584 1065.22,295.918 1064.5,295.5C 1063.17,295.5 1061.83,295.5 1060.5,295.5C 1062.23,287.597 1059.23,282.93 1051.5,281.5C 1051.5,274.5 1051.5,267.5 1051.5,260.5C 1045.64,260.178 1039.98,260.511 1034.5,261.5C 1034.67,268.175 1034.5,274.842 1034,281.5C 1031.2,282.932 1028.36,284.266 1025.5,285.5C 1024.53,287.607 1024.2,289.941 1024.5,292.5C 1022.17,292.5 1019.83,292.5 1017.5,292.5C 1017.81,289.615 1017.47,286.948 1016.5,284.5C 1014.53,280.849 1011.53,278.849 1007.5,278.5C 1007.5,271.5 1007.5,264.5 1007.5,257.5C 1001.83,257.5 996.167,257.5 990.5,257.5C 990.5,264.833 990.5,272.167 990.5,279.5C 986.147,280.319 982.647,282.652 980,286.5C 979.505,288.473 979.338,290.473 979.5,292.5C 977.5,292.5 975.5,292.5 973.5,292.5C 974.761,286.861 973.094,282.528 968.5,279.5C 967.081,278.549 965.415,278.216 963.5,278.5C 963.822,272.642 963.489,266.975 962.5,261.5C 957.5,261.5 952.5,261.5 947.5,261.5C 947.5,268.167 947.5,274.833 947.5,281.5C 943.147,282.319 939.647,284.652 937,288.5C 936.506,290.134 936.34,291.801 936.5,293.5C 933.753,293.813 931.086,293.48 928.5,292.5C 926.506,288.176 923.173,286.509 918.5,287.5C 918.5,281.5 918.5,275.5 918.5,269.5C 913.5,269.5 908.5,269.5 903.5,269.5C 903.5,276.5 903.5,283.5 903.5,290.5C 902.127,290.343 900.793,290.51 899.5,291C 897.63,293.04 895.63,294.873 893.5,296.5C 892.523,299.287 892.19,302.287 892.5,305.5C 890.5,305.5 888.5,305.5 886.5,305.5C 886.5,303.833 886.5,302.167 886.5,300.5C 883.375,299.521 880.042,299.187 876.5,299.5C 876.823,293.31 876.49,287.31 875.5,281.5C 870.167,281.5 864.833,281.5 859.5,281.5C 842.901,360.325 826.235,439.159 809.5,518C 814.728,520.716 819.728,524.55 824.5,529.5C 815.433,565.866 806.266,602.2 797,638.5C 744.308,666.927 691.474,694.927 638.5,722.5C 637.225,715.232 635.558,708.066 633.5,701C 635.685,699.753 637.018,697.92 637.5,695.5C 632.497,670.154 627.497,644.82 622.5,619.5C 620.5,619.5 618.5,619.5 616.5,619.5C 615.539,621.265 615.205,623.265 615.5,625.5C 614.209,625.263 613.209,625.596 612.5,626.5C 612.565,626.938 612.399,627.272 612,627.5C 611.803,625.139 610.636,623.472 608.5,622.5C 607.526,620.257 607.192,617.924 607.5,615.5C 605.833,615.5 604.167,615.5 602.5,615.5C 603.056,619.193 601.722,621.86 598.5,623.5C 594.176,621.506 592.509,618.173 593.5,613.5C 591.5,613.5 589.5,613.5 587.5,613.5C 586.94,617.125 585.606,620.459 583.5,623.5C 582.852,621.851 581.852,620.518 580.5,619.5C 579.52,616.914 579.187,614.247 579.5,611.5C 577.265,611.205 575.265,611.539 573.5,612.5C 572.732,614.715 572.065,617.048 571.5,619.5C 570.313,620.534 569.48,621.867 569,623.5C 568.31,621.65 567.144,620.316 565.5,619.5C 565.5,617.167 565.5,614.833 565.5,612.5C 563.167,612.5 560.833,612.5 558.5,612.5C 558.721,615.279 558.388,617.946 557.5,620.5C 556.034,621.347 555.2,622.68 555,624.5C 551.506,622.527 550.006,619.527 550.5,615.5C 548.5,615.5 546.5,615.5 544.5,615.5C 544.46,619.8 543.46,623.8 541.5,627.5C 540.07,627.579 538.736,627.246 537.5,626.5C 536.526,624.257 536.192,621.924 536.5,619.5C 534.208,619.244 532.041,619.577 530,620.5C 525.034,645.966 519.534,671.299 513.5,696.5C 515.097,697.791 516.43,699.291 517.5,701C 509.185,738.107 501.185,775.274 493.5,812.5C 492.883,812.611 492.383,812.944 492,813.5C 453.001,647.814 484.334,497.147 586,361.5C 679.453,245.567 800.619,179.067 949.5,162C 1118.45,150.187 1261.95,204.354 1380,324.5C 1496.5,453.378 1541.17,604.045 1514,776.5C 1511,793.585 1506.83,810.251 1501.5,826.5 Z"/></g>
<g><path style="opacity:1" fill="#14703f" d="M 1007.5,278.5 C 1011.53,278.849 1014.53,280.849 1016.5,284.5C 1016.5,287.5 1016.5,290.5 1016.5,293.5C 1019.5,293.5 1022.5,293.5 1025.5,293.5C 1025.5,290.833 1025.5,288.167 1025.5,285.5C 1028.36,284.266 1031.2,282.932 1034,281.5C 1034.5,274.842 1034.67,268.175 1034.5,261.5C 1039.83,261.5 1045.17,261.5 1050.5,261.5C 1050.18,268.354 1050.51,275.021 1051.5,281.5C 1059.23,282.93 1062.23,287.597 1060.5,295.5C 1061.83,295.5 1063.17,295.5 1064.5,295.5C 1064.5,296.5 1064.5,297.5 1064.5,298.5C 1065.5,298.5 1066.5,298.5 1067.5,298.5C 1067.5,296.5 1067.5,294.5 1067.5,292.5C 1069.77,287.895 1073.43,285.895 1078.5,286.5C 1078.5,280.833 1078.5,275.167 1078.5,269.5C 1083.5,269.5 1088.5,269.5 1093.5,269.5C 1093.18,276.687 1093.51,283.687 1094.5,290.5C 1103.25,291.624 1106.59,296.624 1104.5,305.5C 1107.57,306.023 1110.57,307.023 1113.5,308.5C 1114.47,306.257 1114.81,303.924 1114.5,301.5C 1117.39,301.806 1120.05,301.473 1122.5,300.5C 1122.5,294.167 1122.5,287.833 1122.5,281.5C 1127.83,281.5 1133.17,281.5 1138.5,281.5C 1155.52,360.244 1172.85,438.91 1190.5,517.5C 1185.45,519.548 1180.45,522.715 1175.5,527C 1176,527.5 1176.5,528 1177,528.5C 1185.21,564.661 1194.04,600.661 1203.5,636.5C 1253.01,663.754 1302.67,690.754 1352.5,717.5C 1353.09,717.291 1353.59,716.957 1354,716.5C 1355.12,711.192 1356.62,706.025 1358.5,701C 1355.56,700.06 1354.22,698.06 1354.5,695C 1359.31,669.764 1364.31,644.597 1369.5,619.5C 1371.5,619.5 1373.5,619.5 1375.5,619.5C 1375.5,621.5 1375.5,623.5 1375.5,625.5C 1377.45,625.227 1378.95,625.893 1380,627.5C 1380.22,625.119 1381.39,623.453 1383.5,622.5C 1384.46,620.735 1384.79,618.735 1384.5,616.5C 1386.17,616.5 1387.83,616.5 1389.5,616.5C 1389.11,619.857 1390.44,622.19 1393.5,623.5C 1397.82,621.506 1399.49,618.173 1398.5,613.5C 1400.5,613.5 1402.5,613.5 1404.5,613.5C 1404.2,615.604 1404.53,617.604 1405.5,619.5C 1406.97,620.381 1407.8,621.714 1408,623.5C 1408.64,621.697 1409.8,620.364 1411.5,619.5C 1412.47,617.257 1412.81,614.924 1412.5,612.5C 1414.5,612.5 1416.5,612.5 1418.5,612.5C 1418.19,614.924 1418.53,617.257 1419.5,619.5C 1420.85,620.518 1421.85,621.851 1422.5,623.5C 1423.28,621.712 1424.62,620.712 1426.5,620.5C 1427.47,618.393 1427.8,616.059 1427.5,613.5C 1429.17,613.5 1430.83,613.5 1432.5,613.5C 1432.21,615.735 1432.54,617.735 1433.5,619.5C 1435.61,620.453 1436.78,622.119 1437,624.5C 1440.49,622.527 1441.99,619.527 1441.5,615.5C 1443.5,615.5 1445.5,615.5 1447.5,615.5C 1447.34,617.857 1447.5,620.19 1448,622.5C 1449.62,623.851 1450.78,625.518 1451.5,627.5C 1452.74,626.754 1454.07,626.421 1455.5,626.5C 1455.5,624.167 1455.5,621.833 1455.5,619.5C 1457.6,619.201 1459.6,619.534 1461.5,620.5C 1466.94,645.464 1472.27,670.464 1477.5,695.5C 1476.75,697.677 1475.75,699.677 1474.5,701.5C 1483.66,743.147 1492.66,784.814 1501.5,826.5C 1501.92,828.781 1501.26,830.448 1499.5,831.5C 1490.78,790.162 1481.94,748.828 1473,707.5C 1472.84,705.324 1472,703.491 1470.5,702C 1442.14,692.25 1413.14,689.916 1383.5,695C 1379.54,696.126 1375.54,697.126 1371.5,698C 1367.36,699.236 1363.69,701.236 1360.5,704C 1358.57,709.502 1357.57,715.002 1357.5,720.5C 1377.99,731.246 1398.33,742.246 1418.5,753.5C 1427.04,822.071 1434.71,890.737 1441.5,959.5C 1441.52,962.659 1440.35,965.326 1438,967.5C 1437.8,965.618 1437.3,963.952 1436.5,962.5C 1429.33,894.139 1421.83,825.805 1414,757.5C 1344.91,719.706 1275.75,682.04 1206.5,644.5C 1206.17,645 1205.83,645.5 1205.5,646C 1242.27,796.819 1278.94,947.652 1315.5,1098.5C 1315.24,1100.56 1314.07,1101.9 1312,1102.5C 1311.72,1101.58 1311.22,1100.92 1310.5,1100.5C 1264.64,910.715 1218.3,721.048 1171.5,531.5C 1148.07,521.079 1123.74,513.579 1098.5,509C 1028.69,497.082 959.021,497.749 889.5,511C 867.771,515.406 847.438,523.24 828.5,534.5C 781.519,724.424 734.852,914.424 688.5,1104.5C 686.611,1103.4 684.945,1102.06 683.5,1100.5C 720.442,949.231 757.776,798.064 795.5,647C 791.382,648.049 787.382,649.716 783.5,652C 717.659,687.421 651.659,722.588 585.5,757.5C 583.476,767.731 581.976,778.065 581,788.5C 575.333,844.5 569.667,900.5 564,956.5C 562.576,964.31 563.743,971.643 567.5,978.5C 564.143,974.465 561.143,970.132 558.5,965.5C 564.904,895.122 571.904,824.789 579.5,754.5C 598.009,744.412 616.675,734.579 635.5,725C 636.059,724.275 636.392,723.442 636.5,722.5C 635,716.5 633.5,710.5 632,704.5C 630.307,702.396 628.14,700.896 625.5,700C 600.28,692.581 574.614,690.581 548.5,694C 538.814,695.451 529.481,698.118 520.5,702C 511.328,741.36 502.661,780.86 494.5,820.5C 492.486,818.098 492.153,815.432 493.5,812.5C 501.185,775.274 509.185,738.107 517.5,701C 516.43,699.291 515.097,697.791 513.5,696.5C 519.534,671.299 525.034,645.966 530,620.5C 532.041,619.577 534.208,619.244 536.5,619.5C 536.192,621.924 536.526,624.257 537.5,626.5C 538.736,627.246 540.07,627.579 541.5,627.5C 543.46,623.8 544.46,619.8 544.5,615.5C 546.5,615.5 548.5,615.5 550.5,615.5C 550.006,619.527 551.506,622.527 555,624.5C 555.2,622.68 556.034,621.347 557.5,620.5C 559.344,618.721 560.01,616.388 559.5,613.5C 561.167,613.5 562.833,613.5 564.5,613.5C 564.205,615.735 564.539,617.735 565.5,619.5C 567.144,620.316 568.31,621.65 569,623.5C 569.48,621.867 570.313,620.534 571.5,619.5C 573.344,617.721 574.01,615.388 573.5,612.5C 575.265,611.539 577.265,611.205 579.5,611.5C 579.187,614.247 579.52,616.914 580.5,619.5C 581.852,620.518 582.852,621.851 583.5,623.5C 585.606,620.459 586.94,617.125 587.5,613.5C 589.5,613.5 591.5,613.5 593.5,613.5C 592.509,618.173 594.176,621.506 598.5,623.5C 601.722,621.86 603.056,619.193 602.5,615.5C 604.167,615.5 605.833,615.5 607.5,615.5C 607.192,617.924 607.526,620.257 608.5,622.5C 610.636,623.472 611.803,625.139 612,627.5C 612.399,627.272 612.565,626.938 612.5,626.5C 613.833,626.5 615.167,626.5 616.5,626.5C 616.5,624.167 616.5,621.833 616.5,619.5C 618.5,619.5 620.5,619.5 622.5,619.5C 627.497,644.82 632.497,670.154 637.5,695.5C 637.018,697.92 635.685,699.753 633.5,701C 635.558,708.066 637.225,715.232 638.5,722.5C 691.474,694.927 744.308,666.927 797,638.5C 806.266,602.2 815.433,565.866 824.5,529.5C 819.728,524.55 814.728,520.716 809.5,518C 826.235,439.159 842.901,360.325 859.5,281.5C 864.833,281.5 870.167,281.5 875.5,281.5C 875.5,287.833 875.5,294.167 875.5,300.5C 879.167,300.5 882.833,300.5 886.5,300.5C 886.5,302.167 886.5,303.833 886.5,305.5C 888.607,306.468 890.941,306.802 893.5,306.5C 893.5,303.167 893.5,299.833 893.5,296.5C 895.63,294.873 897.63,293.04 899.5,291C 900.793,290.51 902.127,290.343 903.5,290.5C 903.5,283.5 903.5,276.5 903.5,269.5C 908.5,269.5 913.5,269.5 918.5,269.5C 918.5,275.5 918.5,281.5 918.5,287.5C 923.173,286.509 926.506,288.176 928.5,292.5C 931.086,293.48 933.753,293.813 936.5,293.5C 936.34,291.801 936.506,290.134 937,288.5C 939.647,284.652 943.147,282.319 947.5,281.5C 947.5,274.833 947.5,268.167 947.5,261.5C 952.5,261.5 957.5,261.5 962.5,261.5C 962.5,267.5 962.5,273.5 962.5,279.5C 964.5,279.5 966.5,279.5 968.5,279.5C 973.094,282.528 974.761,286.861 973.5,292.5C 975.5,292.5 977.5,292.5 979.5,292.5C 979.338,290.473 979.505,288.473 980,286.5C 982.647,282.652 986.147,280.319 990.5,279.5C 991.491,272.687 991.825,265.687 991.5,258.5C 996.5,258.5 1001.5,258.5 1006.5,258.5C 1006.18,265.354 1006.51,272.021 1007.5,278.5 Z"/></g>
<g><path style="opacity:1" fill="#478c93" d="M 1007.5,278.5 C 1006.51,272.021 1006.18,265.354 1006.5,258.5C 1001.5,258.5 996.5,258.5 991.5,258.5C 991.825,265.687 991.491,272.687 990.5,279.5C 990.5,272.167 990.5,264.833 990.5,257.5C 996.167,257.5 1001.83,257.5 1007.5,257.5C 1007.5,264.5 1007.5,271.5 1007.5,278.5 Z"/></g>
<g><path style="opacity:1" fill="#4a8e97" d="M 962.5,261.5 C 963.489,266.975 963.822,272.642 963.5,278.5C 965.415,278.216 967.081,278.549 968.5,279.5C 966.5,279.5 964.5,279.5 962.5,279.5C 962.5,273.5 962.5,267.5 962.5,261.5 Z"/></g>
<g><path style="opacity:1" fill="#428a8c" d="M 1034.5,261.5 C 1039.98,260.511 1045.64,260.178 1051.5,260.5C 1051.5,267.5 1051.5,274.5 1051.5,281.5C 1050.51,275.021 1050.18,268.354 1050.5,261.5C 1045.17,261.5 1039.83,261.5 1034.5,261.5 Z"/></g>
<g><path style="opacity:1" fill="#fefefe" d="M 1075.5,292.5 C 1078.5,292.5 1081.5,292.5 1084.5,292.5C 1084.5,286.5 1084.5,280.5 1084.5,274.5C 1085.83,274.5 1087.17,274.5 1088.5,274.5C 1088.5,281.5 1088.5,288.5 1088.5,295.5C 1092.6,294.769 1096.1,295.769 1099,298.5C 1099.5,302.821 1099.67,307.154 1099.5,311.5C 1106.11,312.602 1112.78,313.268 1119.5,313.5C 1119.5,311.167 1119.5,308.833 1119.5,306.5C 1122.17,306.5 1124.83,306.5 1127.5,306.5C 1128.49,300.355 1128.82,294.022 1128.5,287.5C 1130.17,287.5 1131.83,287.5 1133.5,287.5C 1150.25,361.29 1166.58,435.29 1182.5,509.5C 1131.2,490.573 1078.2,480.239 1023.5,478.5C 1023.5,465.167 1023.5,451.833 1023.5,438.5C 1007.83,438.5 992.167,438.5 976.5,438.5C 976.5,451.5 976.5,464.5 976.5,477.5C 921.626,479.675 868.626,490.675 817.5,510.5C 832.527,435.926 848.194,361.593 864.5,287.5C 866.167,287.5 867.833,287.5 869.5,287.5C 869.177,293.69 869.51,299.69 870.5,305.5C 873.833,305.5 877.167,305.5 880.5,305.5C 880.5,308.167 880.5,310.833 880.5,313.5C 886.535,313.092 892.535,312.426 898.5,311.5C 898.334,307.154 898.501,302.821 899,298.5C 899.708,297.619 900.542,296.953 901.5,296.5C 904.167,296.5 906.833,296.5 909.5,296.5C 909.5,289.167 909.5,281.833 909.5,274.5C 910.833,274.5 912.167,274.5 913.5,274.5C 913.5,280.5 913.5,286.5 913.5,292.5C 916.187,292.336 918.854,292.503 921.5,293C 922.056,293.383 922.389,293.883 922.5,294.5C 922.5,297.5 922.5,300.5 922.5,303.5C 926.702,303.817 930.702,303.483 934.5,302.5C 934.5,301.5 934.5,300.5 934.5,299.5C 937.167,299.5 939.833,299.5 942.5,299.5C 942.5,296.5 942.5,293.5 942.5,290.5C 942.953,289.542 943.619,288.708 944.5,288C 947.146,287.503 949.813,287.336 952.5,287.5C 952.5,280.5 952.5,273.5 952.5,266.5C 954.167,266.5 955.833,266.5 957.5,266.5C 957.5,272.5 957.5,278.5 957.5,284.5C 960.777,284.216 963.943,284.549 967,285.5C 967.499,289.486 967.666,293.486 967.5,297.5C 973.5,297.5 979.5,297.5 985.5,297.5C 983.847,288.495 987.513,284.161 996.5,284.5C 996.5,277.5 996.5,270.5 996.5,263.5C 998.167,263.5 999.833,263.5 1001.5,263.5C 1001.5,270.5 1001.5,277.5 1001.5,284.5C 1005.01,283.994 1008.17,284.66 1011,286.5C 1011.5,290.486 1011.67,294.486 1011.5,298.5C 1017.83,298.5 1024.17,298.5 1030.5,298.5C 1030.34,295.482 1030.5,292.482 1031,289.5C 1033.9,287.467 1037.06,286.134 1040.5,285.5C 1040.5,279.167 1040.5,272.833 1040.5,266.5C 1042.17,266.5 1043.83,266.5 1045.5,266.5C 1045.5,273.5 1045.5,280.5 1045.5,287.5C 1049.01,286.994 1052.17,287.66 1055,289.5C 1055.5,293.152 1055.67,296.818 1055.5,300.5C 1056.83,300.5 1058.17,300.5 1059.5,300.5C 1059.5,301.5 1059.5,302.5 1059.5,303.5C 1063.83,303.5 1068.17,303.5 1072.5,303.5C 1072.34,300.482 1072.5,297.482 1073,294.5C 1073.71,293.619 1074.54,292.953 1075.5,292.5 Z"/></g>
<g><path style="opacity:1" fill="#448b8f" d="M 1078.5,269.5 C 1083.64,268.512 1088.97,268.179 1094.5,268.5C 1094.5,275.833 1094.5,283.167 1094.5,290.5C 1093.51,283.687 1093.18,276.687 1093.5,269.5C 1088.5,269.5 1083.5,269.5 1078.5,269.5 Z"/></g>
<g><path style="opacity:1" fill="#5d9f7d" d="M 1084.5,274.5 C 1084.5,280.5 1084.5,286.5 1084.5,292.5C 1081.5,292.5 1078.5,292.5 1075.5,292.5C 1077.95,291.527 1080.61,291.194 1083.5,291.5C 1083.18,285.642 1083.51,279.975 1084.5,274.5 Z"/></g>
<g><path style="opacity:1" fill="#7fb399" d="M 909.5,274.5 C 909.5,281.833 909.5,289.167 909.5,296.5C 906.833,296.5 904.167,296.5 901.5,296.5C 903.607,295.532 905.941,295.198 908.5,295.5C 908.175,288.313 908.509,281.313 909.5,274.5 Z"/></g>
<g><path style="opacity:1" fill="#5d98b2" d="M 875.5,281.5 C 876.49,287.31 876.823,293.31 876.5,299.5C 880.042,299.187 883.375,299.521 886.5,300.5C 882.833,300.5 879.167,300.5 875.5,300.5C 875.5,294.167 875.5,287.833 875.5,281.5 Z"/></g>
<g><path style="opacity:1" fill="#5d98b1" d="M 1016.5,284.5 C 1017.47,286.948 1017.81,289.615 1017.5,292.5C 1019.83,292.5 1022.17,292.5 1024.5,292.5C 1024.2,289.941 1024.53,287.607 1025.5,285.5C 1025.5,288.167 1025.5,290.833 1025.5,293.5C 1022.5,293.5 1019.5,293.5 1016.5,293.5C 1016.5,290.5 1016.5,287.5 1016.5,284.5 Z"/></g>
<g><path style="opacity:1" fill="#bcd7c9" d="M 864.5,287.5 C 866.265,286.539 868.265,286.205 870.5,286.5C 870.5,292.833 870.5,299.167 870.5,305.5C 869.51,299.69 869.177,293.69 869.5,287.5C 867.833,287.5 866.167,287.5 864.5,287.5 Z"/></g>
<g><path style="opacity:1" fill="#6ca889" d="M 1133.5,287.5 C 1131.83,287.5 1130.17,287.5 1128.5,287.5C 1128.82,294.022 1128.49,300.355 1127.5,306.5C 1127.5,299.833 1127.5,293.167 1127.5,286.5C 1129.74,286.205 1131.74,286.539 1133.5,287.5 Z"/></g>
<g><path style="opacity:1" fill="#7bb195" d="M 942.5,290.5 C 942.5,293.5 942.5,296.5 942.5,299.5C 939.833,299.5 937.167,299.5 934.5,299.5C 936.607,298.532 938.941,298.198 941.5,298.5C 941.194,295.615 941.527,292.948 942.5,290.5 Z"/></g>
<g><path style="opacity:1" fill="#629ab8" d="M 893.5,296.5 C 893.5,299.833 893.5,303.167 893.5,306.5C 890.941,306.802 888.607,306.468 886.5,305.5C 888.5,305.5 890.5,305.5 892.5,305.5C 892.19,302.287 892.523,299.287 893.5,296.5 Z"/></g>
<g><path style="opacity:1" fill="#4c8f99" d="M 1067.5,292.5 C 1067.5,294.5 1067.5,296.5 1067.5,298.5C 1066.5,298.5 1065.5,298.5 1064.5,298.5C 1064.5,297.5 1064.5,296.5 1064.5,295.5C 1065.22,295.918 1065.72,296.584 1066,297.5C 1066.2,295.618 1066.7,293.952 1067.5,292.5 Z"/></g>
<g><path style="opacity:1" fill="#3e8785" d="M 1122.5,300.5 C 1120.05,301.473 1117.39,301.806 1114.5,301.5C 1114.81,303.924 1114.47,306.257 1113.5,308.5C 1110.57,307.023 1107.57,306.023 1104.5,305.5C 1107.5,305.5 1110.5,305.5 1113.5,305.5C 1113.5,303.833 1113.5,302.167 1113.5,300.5C 1116.5,300.5 1119.5,300.5 1122.5,300.5 Z"/></g>
<g><path style="opacity:1" fill="#91bda7" d="M 922.5,294.5 C 923.473,296.948 923.806,299.615 923.5,302.5C 927.167,302.5 930.833,302.5 934.5,302.5C 930.702,303.483 926.702,303.817 922.5,303.5C 922.5,300.5 922.5,297.5 922.5,294.5 Z"/></g>
<g><path style="opacity:1" fill="#fefefe" d="M 1017.5,444.5 C 1017.5,455.167 1017.5,465.833 1017.5,476.5C 1005.5,476.5 993.5,476.5 981.5,476.5C 981.5,465.833 981.5,455.167 981.5,444.5C 993.5,444.5 1005.5,444.5 1017.5,444.5 Z"/></g>
<g><path style="opacity:1" fill="#83b69c" d="M 1017.5,444.5 C 1018.49,455.321 1018.83,466.321 1018.5,477.5C 1005.99,477.829 993.655,477.495 981.5,476.5C 993.5,476.5 1005.5,476.5 1017.5,476.5C 1017.5,465.833 1017.5,455.167 1017.5,444.5 Z"/></g>
<g><path style="opacity:1" fill="#fefefe" d="M 1310.5,1100.5 C 1310.61,1102.9 1309.61,1104.74 1307.5,1106C 1191.24,1188.31 1062.24,1219.98 920.5,1201C 834.981,1187.72 757.648,1155.55 688.5,1104.5C 734.852,914.424 781.519,724.424 828.5,534.5C 847.438,523.24 867.771,515.406 889.5,511C 959.021,497.749 1028.69,497.082 1098.5,509C 1123.74,513.579 1148.07,521.079 1171.5,531.5C 1218.3,721.048 1264.64,910.715 1310.5,1100.5 Z"/></g>
<g><path style="opacity:1" fill="#50919f" d="M 573.5,612.5 C 574.01,615.388 573.344,617.721 571.5,619.5C 572.065,617.048 572.732,614.715 573.5,612.5 Z"/></g>
<g><path style="opacity:1" fill="#3d8784" d="M 1433.5,619.5 C 1432.54,617.735 1432.21,615.735 1432.5,613.5C 1430.83,613.5 1429.17,613.5 1427.5,613.5C 1427.8,616.059 1427.47,618.393 1426.5,620.5C 1426.5,617.833 1426.5,615.167 1426.5,612.5C 1428.83,612.5 1431.17,612.5 1433.5,612.5C 1433.5,614.833 1433.5,617.167 1433.5,619.5 Z"/></g>
<g><path style="opacity:1" fill="#2f7f6d" d="M 565.5,619.5 C 564.539,617.735 564.205,615.735 564.5,613.5C 562.833,613.5 561.167,613.5 559.5,613.5C 560.01,616.388 559.344,618.721 557.5,620.5C 558.388,617.946 558.721,615.279 558.5,612.5C 560.833,612.5 563.167,612.5 565.5,612.5C 565.5,614.833 565.5,617.167 565.5,619.5 Z"/></g>
<g><path style="opacity:1" fill="#3b8682" d="M 1389.5,616.5 C 1387.83,616.5 1386.17,616.5 1384.5,616.5C 1384.79,618.735 1384.46,620.735 1383.5,622.5C 1383.5,620.167 1383.5,617.833 1383.5,615.5C 1385.74,615.205 1387.74,615.539 1389.5,616.5 Z"/></g>
<g><path style="opacity:1" fill="#99c3ae" d="M 1418.5,622.5 C 1416.5,622.5 1414.5,622.5 1412.5,622.5C 1413.21,621.596 1414.21,621.263 1415.5,621.5C 1415.34,619.473 1415.5,617.473 1416,615.5C 1416.17,618.177 1417,620.51 1418.5,622.5 Z"/></g>
<g><path style="opacity:1" fill="#fcfdfc" d="M 580.5,625.5 C 582.607,626.468 584.941,626.802 587.5,626.5C 587.5,624.833 587.5,623.167 587.5,621.5C 591.782,621.409 594.782,623.243 596.5,627C 598.134,627.494 599.801,627.66 601.5,627.5C 601.5,626.5 601.5,625.5 601.5,624.5C 603.806,624.993 606.139,625.326 608.5,625.5C 608.5,627.167 608.5,628.833 608.5,630.5C 610.806,630.993 613.139,631.326 615.5,631.5C 615.5,630.5 615.5,629.5 615.5,628.5C 616.5,628.5 617.5,628.5 618.5,628.5C 618.201,626.396 618.534,624.396 619.5,622.5C 625.065,645.657 629.731,668.99 633.5,692.5C 617.59,687.468 601.256,684.802 584.5,684.5C 584.5,680.167 584.5,675.833 584.5,671.5C 578.833,671.5 573.167,671.5 567.5,671.5C 567.5,675.833 567.5,680.167 567.5,684.5C 551.002,684.2 535.002,686.866 519.5,692.5C 518.353,690.235 518.186,687.902 519,685.5C 523.288,664.393 527.954,643.393 533,622.5C 533.495,624.473 533.662,626.473 533.5,628.5C 534.5,628.5 535.5,628.5 536.5,628.5C 536.5,629.5 536.5,630.5 536.5,631.5C 541.542,632.495 543.875,630.495 543.5,625.5C 546.167,625.167 548.833,624.833 551.5,624.5C 551.5,625.833 551.5,627.167 551.5,628.5C 556.542,629.495 558.875,627.495 558.5,622.5C 559.5,622.5 560.5,622.5 561.5,622.5C 561.833,613.167 562.167,613.167 562.5,622.5C 563.5,622.5 564.5,622.5 565.5,622.5C 565.5,623.833 565.5,625.167 565.5,626.5C 567.833,626.5 570.167,626.5 572.5,626.5C 572.5,624.833 572.5,623.167 572.5,621.5C 573.5,621.5 574.5,621.5 575.5,621.5C 575.833,612.167 576.167,612.167 576.5,621.5C 579.5,621.167 580.833,622.5 580.5,625.5 Z"/></g>
<g><path style="opacity:1" fill="#fcfdfd" d="M 1434.5,627.5 C 1436.26,628.461 1438.26,628.795 1440.5,628.5C 1440.5,627.167 1440.5,625.833 1440.5,624.5C 1442.86,624.674 1445.19,625.007 1447.5,625.5C 1447.5,627.167 1447.5,628.833 1447.5,630.5C 1450.13,631.092 1452.79,631.425 1455.5,631.5C 1455.5,630.5 1455.5,629.5 1455.5,628.5C 1456.5,628.5 1457.5,628.5 1458.5,628.5C 1458.34,626.473 1458.5,624.473 1459,622.5C 1464.54,645.701 1469.37,669.035 1473.5,692.5C 1457.55,687.63 1441.21,684.964 1424.5,684.5C 1424.5,680.167 1424.5,675.833 1424.5,671.5C 1418.83,671.5 1413.17,671.5 1407.5,671.5C 1407.5,675.833 1407.5,680.167 1407.5,684.5C 1391,684.201 1375,686.868 1359.5,692.5C 1358.35,690.235 1358.19,687.902 1359,685.5C 1363.44,664.48 1367.94,643.48 1372.5,622.5C 1373.47,624.396 1373.8,626.396 1373.5,628.5C 1374.5,628.5 1375.5,628.5 1376.5,628.5C 1376.5,629.5 1376.5,630.5 1376.5,631.5C 1378.86,631.326 1381.19,630.993 1383.5,630.5C 1383.5,628.833 1383.5,627.167 1383.5,625.5C 1385.81,625.007 1388.14,624.674 1390.5,624.5C 1390.5,625.5 1390.5,626.5 1390.5,627.5C 1392.86,627.326 1395.19,626.993 1397.5,626.5C 1397.09,624.027 1398.09,622.694 1400.5,622.5C 1401.83,622.5 1403.17,622.5 1404.5,622.5C 1404.5,623.833 1404.5,625.167 1404.5,626.5C 1407.06,626.802 1409.39,626.468 1411.5,625.5C 1411.26,624.209 1411.6,623.209 1412.5,622.5C 1414.5,622.5 1416.5,622.5 1418.5,622.5C 1419.43,623.568 1419.77,624.901 1419.5,626.5C 1421.83,626.5 1424.17,626.5 1426.5,626.5C 1426.5,625.167 1426.5,623.833 1426.5,622.5C 1427.5,622.5 1428.5,622.5 1429.5,622.5C 1429.83,613.167 1430.17,613.167 1430.5,622.5C 1431.5,622.5 1432.5,622.5 1433.5,622.5C 1433.22,624.415 1433.55,626.081 1434.5,627.5 Z"/></g>
<g><path style="opacity:1" fill="#7cb297" d="M 587.5,621.5 C 587.5,623.167 587.5,624.833 587.5,626.5C 584.941,626.802 582.607,626.468 580.5,625.5C 582.5,625.5 584.5,625.5 586.5,625.5C 586.232,623.901 586.566,622.568 587.5,621.5 Z"/></g>
<g><path style="opacity:1" fill="#3b8680" d="M 616.5,619.5 C 616.5,621.833 616.5,624.167 616.5,626.5C 615.167,626.5 613.833,626.5 612.5,626.5C 613.209,625.596 614.209,625.263 615.5,625.5C 615.205,623.265 615.539,621.265 616.5,619.5 Z"/></g>
<g><path style="opacity:1" fill="#6fa98b" d="M 1411.5,625.5 C 1409.39,626.468 1407.06,626.802 1404.5,626.5C 1404.5,625.167 1404.5,623.833 1404.5,622.5C 1403.17,622.5 1401.83,622.5 1400.5,622.5C 1400.34,620.143 1400.5,617.81 1401,615.5C 1401.5,617.473 1401.66,619.473 1401.5,621.5C 1402.83,621.5 1404.17,621.5 1405.5,621.5C 1405.5,622.833 1405.5,624.167 1405.5,625.5C 1407.5,625.5 1409.5,625.5 1411.5,625.5 Z"/></g>
<g><path style="opacity:1" fill="#75ad90" d="M 1440.5,624.5 C 1440.5,625.833 1440.5,627.167 1440.5,628.5C 1438.26,628.795 1436.26,628.461 1434.5,627.5C 1436.17,627.5 1437.83,627.5 1439.5,627.5C 1439.26,626.209 1439.6,625.209 1440.5,624.5 Z"/></g>
<g><path style="opacity:1" fill="#fefefe" d="M 1436.5,962.5 C 1436.66,965.187 1436.5,967.854 1436,970.5C 1405.23,1017.61 1367.73,1058.78 1323.5,1094C 1321.18,1096.16 1318.52,1097.66 1315.5,1098.5C 1278.94,947.652 1242.27,796.819 1205.5,646C 1205.83,645.5 1206.17,645 1206.5,644.5C 1275.75,682.04 1344.91,719.706 1414,757.5C 1421.83,825.805 1429.33,894.139 1436.5,962.5 Z"/></g>
<g><path style="opacity:1" fill="#fefefe" d="M 683.5,1100.5 C 637.552,1066.56 598.886,1025.89 567.5,978.5C 563.743,971.643 562.576,964.31 564,956.5C 569.667,900.5 575.333,844.5 581,788.5C 581.976,778.065 583.476,767.731 585.5,757.5C 651.659,722.588 717.659,687.421 783.5,652C 787.382,649.716 791.382,648.049 795.5,647C 757.776,798.064 720.442,949.231 683.5,1100.5 Z"/></g>
<g><path style="opacity:1" fill="#0c6d3a" d="M 1008.5,740.5 C 1008.44,739.957 1008.11,739.624 1007.5,739.5C 1006.5,745.798 1006.17,752.132 1006.5,758.5C 1005.86,789.499 1005.69,820.499 1006,851.5C 1007.96,858.006 1008.96,864.673 1009,871.5C 1009.91,872.328 1010.58,873.328 1011,874.5C 1011.33,879.5 1011.67,884.5 1012,889.5C 1013.59,892.341 1015.42,895.007 1017.5,897.5C 1005.52,898.709 993.517,899.209 981.5,899C 987.045,891.064 989.545,882.231 989,872.5C 990.785,864.827 992.785,857.161 995,849.5C 995.5,834.837 995.667,820.17 995.5,805.5C 995.833,784.156 995.5,762.823 994.5,741.5C 993.893,741.624 993.56,741.957 993.5,742.5C 990.375,747.417 988.375,752.75 987.5,758.5C 986.833,761.833 986.167,765.167 985.5,768.5C 975.242,754.95 973.909,740.617 981.5,725.5C 981,725.167 980.5,724.833 980,724.5C 974.346,727.487 970.013,731.821 967,737.5C 963.468,744.095 961.135,751.095 960,758.5C 955.423,746.173 955.423,733.839 960,721.5C 962.422,716.657 964.755,711.99 967,707.5C 956.106,714.953 947.772,724.62 942,736.5C 941.771,716.456 950.604,701.956 968.5,693C 959.853,692.096 951.853,693.929 944.5,698.5C 947.51,689.008 954.177,682.841 964.5,680C 971.578,679.412 978.578,679.412 985.5,680C 980.482,673.325 974.148,668.325 966.5,665C 978.088,663.361 988.588,665.861 998,672.5C 997.59,667.043 999.256,662.376 1003,658.5C 1005.59,664.016 1008.92,669.016 1013,673.5C 1020.75,667.05 1029.58,664.883 1039.5,667C 1034.63,670.703 1030.3,674.87 1026.5,679.5C 1034.74,680.747 1042.74,682.913 1050.5,686C 1057.63,689.795 1062.63,695.462 1065.5,703C 1065.17,703.5 1064.83,704 1064.5,704.5C 1058.23,700.531 1051.56,697.364 1044.5,695C 1041.5,694.333 1038.5,694.333 1035.5,695C 1054.81,703.839 1065.64,718.672 1068,739.5C 1061.25,730.079 1053.75,721.246 1045.5,713C 1043.63,711.634 1041.63,710.467 1039.5,709.5C 1039.17,709.833 1038.83,710.167 1038.5,710.5C 1046.18,722.384 1049.68,735.384 1049,749.5C 1048.75,752.754 1047.75,755.754 1046,758.5C 1043.48,748.934 1040.14,739.601 1036,730.5C 1034.39,726.957 1032.06,723.957 1029,721.5C 1028.86,732.875 1028.19,744.208 1027,755.5C 1026.15,760.717 1024.15,765.383 1021,769.5C 1019.4,762.703 1017.4,756.036 1015,749.5C 1013.36,746.039 1011.19,743.039 1008.5,740.5 Z"/></g>
<g><path style="opacity:1" fill="#fdfefd" d="M 570.5,674.5 C 574.167,674.5 577.833,674.5 581.5,674.5C 581.5,677.5 581.5,680.5 581.5,683.5C 577.833,683.5 574.167,683.5 570.5,683.5C 570.5,680.5 570.5,677.5 570.5,674.5 Z"/></g>
<g><path style="opacity:1" fill="#fbfcfb" d="M 1410.5,674.5 C 1414.17,674.5 1417.83,674.5 1421.5,674.5C 1421.5,677.5 1421.5,680.5 1421.5,683.5C 1417.83,683.5 1414.17,683.5 1410.5,683.5C 1410.5,680.5 1410.5,677.5 1410.5,674.5 Z"/></g>
<g><path style="opacity:1" fill="#fdfefe" d="M 558.5,965.5 C 529.314,920.78 507.98,872.446 494.5,820.5C 502.661,780.86 511.328,741.36 520.5,702C 529.481,698.118 538.814,695.451 548.5,694C 574.614,690.581 600.28,692.581 625.5,700C 628.14,700.896 630.307,702.396 632,704.5C 633.5,710.5 635,716.5 636.5,722.5C 636.392,723.442 636.059,724.275 635.5,725C 616.675,734.579 598.009,744.412 579.5,754.5C 571.904,824.789 564.904,895.122 558.5,965.5 Z"/></g>
<g><path style="opacity:1" fill="#fdfefd" d="M 1499.5,831.5 C 1487.01,876.475 1468.51,918.808 1444,958.5C 1443.33,959.252 1442.5,959.586 1441.5,959.5C 1434.71,890.737 1427.04,822.071 1418.5,753.5C 1398.33,742.246 1377.99,731.246 1357.5,720.5C 1357.57,715.002 1358.57,709.502 1360.5,704C 1363.69,701.236 1367.36,699.236 1371.5,698C 1375.54,697.126 1379.54,696.126 1383.5,695C 1413.14,689.916 1442.14,692.25 1470.5,702C 1472,703.491 1472.84,705.324 1473,707.5C 1481.94,748.828 1490.78,790.162 1499.5,831.5 Z"/></g>
<g><path style="opacity:1" fill="#b0d0c0" d="M 1008.5,740.5 C 1007.83,746.5 1007.17,752.5 1006.5,758.5C 1006.17,752.132 1006.5,745.798 1007.5,739.5C 1008.11,739.624 1008.44,739.957 1008.5,740.5 Z"/></g>
<g><path style="opacity:1" fill="#a0c6b2" d="M 987.5,758.5 C 987.666,762.514 987.499,766.514 987,770.5C 986.283,769.956 985.783,769.289 985.5,768.5C 986.167,765.167 986.833,761.833 987.5,758.5 Z"/></g>
<g><path style="opacity:1" fill="#81b499" d="M 993.5,742.5 C 993.56,741.957 993.893,741.624 994.5,741.5C 995.5,762.823 995.833,784.156 995.5,805.5C 994.833,784.5 994.167,763.5 993.5,742.5 Z"/></g>
<g><path style="opacity:1" fill="#0d6e3a" d="M 837.5,846.5 C 838.449,845.848 839.615,845.514 841,845.5C 864.768,849.151 887.602,855.985 909.5,866C 941.367,881.418 971.367,899.585 999.5,920.5C 1027.03,900.888 1056.37,884.055 1087.5,870C 1113.08,858.936 1139.75,853.269 1167.5,853C 1115.09,869.034 1067.42,893.701 1024.5,927C 1021.67,929.833 1018.83,932.667 1016,935.5C 1015.33,936.167 1015.33,936.833 1016,937.5C 1027.3,947.803 1038.3,958.47 1049,969.5C 1052.14,962.041 1056.64,955.541 1062.5,950C 1070.1,948.421 1076.27,950.588 1081,956.5C 1081.83,970.342 1075.66,975.175 1062.5,971C 1059.64,972.786 1058.97,975.119 1060.5,978C 1063.56,980.723 1066.89,983.056 1070.5,985C 1075.55,984.963 1080.55,984.63 1085.5,984C 1093.1,986.591 1095.93,991.757 1094,999.5C 1088.75,1009.03 1080.91,1011.86 1070.5,1008C 1061.22,1003.87 1052.88,998.375 1045.5,991.5C 1039.2,997.631 1032.2,1002.8 1024.5,1007C 1013.95,1008.47 1007.95,1003.8 1006.5,993C 1012.21,982.11 1019.87,980.61 1029.5,988.5C 1031.04,986.796 1032.37,984.963 1033.5,983C 1023.63,970.298 1012.3,959.131 999.5,949.5C 986.896,960.099 974.563,971.099 962.5,982.5C 964.234,985.2 966.568,987.2 969.5,988.5C 978.28,979.702 985.78,980.702 992,991.5C 993.318,999.195 990.151,1004.03 982.5,1006C 979.167,1006.67 975.833,1006.67 972.5,1006C 964.833,1002.17 958.167,997.005 952.5,990.5C 946.573,995.256 940.239,999.423 933.5,1003C 922.672,1008.91 913.172,1007.41 905,998.5C 904.288,984.062 910.788,979.396 924.5,984.5C 930.56,983.106 935.226,979.772 938.5,974.5C 937.96,973.252 937.293,972.085 936.5,971C 926.232,972.864 919.899,968.697 917.5,958.5C 924.423,943.694 933.257,942.694 944,955.5C 946.698,959.367 949.198,963.367 951.5,967.5C 963.112,958.722 973.612,948.722 983,937.5C 984.289,935.945 984.956,934.279 985,932.5C 979.48,926.315 973.313,920.815 966.5,916C 925.353,889.755 882.353,866.589 837.5,846.5 Z"/></g>
<g><path style="opacity:1" fill="#c0d4ed" d="M 1366.5,1076.5 C 1363.44,1080.57 1359.77,1083.9 1355.5,1086.5C 1358.56,1082.43 1362.23,1079.1 1366.5,1076.5 Z"/></g>
<g><path style="opacity:1" fill="#74a5c0" d="M 643.5,1087.5 C 645.404,1087.74 646.738,1088.74 647.5,1090.5C 645.596,1090.26 644.262,1089.26 643.5,1087.5 Z"/></g>
<g><path style="opacity:1" fill="#b0c9e9" d="M 1348.5,1092.5 C 1346.76,1095.24 1344.43,1097.24 1341.5,1098.5C 1343.24,1095.76 1345.57,1093.76 1348.5,1092.5 Z"/></g>
<g><path style="opacity:1" fill="#84aed2" d="M 657.5,1099.5 C 659.404,1099.74 660.738,1100.74 661.5,1102.5C 659.596,1102.26 658.262,1101.26 657.5,1099.5 Z"/></g>
<g><path style="opacity:1" fill="#99badf" d="M 661.5,1102.5 C 663.754,1103.12 665.421,1104.46 666.5,1106.5C 664.205,1105.86 662.539,1104.53 661.5,1102.5 Z"/></g>
<g><path style="opacity:1" fill="#b0c9ec" d="M 1336.5,1102.5 C 1335.42,1104.59 1333.75,1105.92 1331.5,1106.5C 1332.58,1104.41 1334.25,1103.08 1336.5,1102.5 Z"/></g>
<g><path style="opacity:1" fill="#9dbce3" d="M 666.5,1106.5 C 668.754,1107.12 670.421,1108.46 671.5,1110.5C 669.205,1109.86 667.539,1108.53 666.5,1106.5 Z"/></g>
<g><path style="opacity:1" fill="#7daad2" d="M 671.5,1110.5 C 673.404,1110.74 674.738,1111.74 675.5,1113.5C 673.596,1113.26 672.262,1112.26 671.5,1110.5 Z"/></g>
<g><path style="opacity:1" fill="#abc6ea" d="M 1327.5,1109.5 C 1326.42,1111.59 1324.75,1112.92 1322.5,1113.5C 1323.58,1111.41 1325.25,1110.08 1327.5,1109.5 Z"/></g>
<g><path style="opacity:1" fill="#7ba8d0" d="M 675.5,1113.5 C 677.404,1113.74 678.738,1114.74 679.5,1116.5C 677.596,1116.26 676.262,1115.26 675.5,1113.5 Z"/></g>
<g><path style="opacity:1" fill="#7eaad3" d="M 679.5,1116.5 C 681.404,1116.74 682.738,1117.74 683.5,1119.5C 681.596,1119.26 680.262,1118.26 679.5,1116.5 Z"/></g>
<g><path style="opacity:1" fill="#82acd7" d="M 683.5,1119.5 C 686.37,1120.43 688.704,1122.1 690.5,1124.5C 687.63,1123.57 685.296,1121.9 683.5,1119.5 Z"/></g>
<g><path style="opacity:1" fill="#87afde" d="M 1289.5,1136.5 C 1288.34,1138.25 1286.67,1139.25 1284.5,1139.5C 1285.66,1137.75 1287.33,1136.75 1289.5,1136.5 Z"/></g>
<g><path style="opacity:1" fill="#91b5e7" d="M 1284.5,1139.5 C 1284.03,1140.91 1283.03,1141.57 1281.5,1141.5C 1281.97,1140.09 1282.97,1139.43 1284.5,1139.5 Z"/></g>
<g><path style="opacity:1" fill="#8eb3e2" d="M 1281.5,1141.5 C 1278.84,1144.5 1275.51,1146.5 1271.5,1147.5C 1274.49,1145 1277.83,1143 1281.5,1141.5 Z"/></g>
<g><path style="opacity:1" fill="#8bb1e2" d="M 1271.5,1147.5 C 1270.34,1149.25 1268.67,1150.25 1266.5,1150.5C 1267.66,1148.75 1269.33,1147.75 1271.5,1147.5 Z"/></g>
<g><path style="opacity:1" fill="#88afe4" d="M 690.5,1124.5 C 741.18,1159.03 796.18,1184.86 855.5,1202C 999.342,1238.89 1136.34,1221.73 1266.5,1150.5C 1192.73,1193.59 1113.06,1217.42 1027.5,1222C 913.034,1227.51 807.367,1199.85 710.5,1139C 703.589,1134.39 696.922,1129.56 690.5,1124.5 Z"/></g>
<g><path style="opacity:1" fill="#fdfefe" d="M 1438.5,1237.5 C 1440.2,1244.47 1441.37,1251.8 1442,1259.5C 1442.72,1261.95 1443.72,1264.28 1445,1266.5C 1506.33,1324.5 1567.67,1382.5 1629,1440.5C 1628.96,1442.28 1628.29,1443.95 1627,1445.5C 1615.67,1460.17 1604.33,1474.83 1593,1489.5C 1508.7,1411.53 1424.7,1333.2 1341,1254.5C 1340.41,1253.52 1340.74,1252.85 1342,1252.5C 1376.05,1259.09 1408.21,1254.09 1438.5,1237.5 Z"/></g>
<g><path style="opacity:1" fill="#fefefe" d="M 1320.5,1278.5 C 1339.93,1295.09 1358.93,1312.26 1377.5,1330C 1424.04,1375.38 1470.71,1420.54 1517.5,1465.5C 1514.82,1470.19 1511.66,1474.52 1508,1478.5C 1477.52,1509.66 1444.69,1537.83 1409.5,1563C 1392.14,1575.01 1374.8,1587.01 1357.5,1599C 1365.05,1628.94 1359.88,1656.44 1342,1681.5C 1331.64,1694.1 1318.47,1702.27 1302.5,1706C 1287.87,1707.56 1273.21,1707.89 1258.5,1707C 1252.33,1706.42 1247.66,1703.59 1244.5,1698.5C 1254.99,1695.05 1265.32,1690.89 1275.5,1686C 1286.65,1679.54 1293.82,1670.04 1297,1657.5C 1298.46,1647.54 1298.8,1637.54 1298,1627.5C 1281.58,1601 1264.92,1574.66 1248,1548.5C 1240.59,1541.6 1231.75,1538.26 1221.5,1538.5C 1221.34,1536.14 1221.5,1533.81 1222,1531.5C 1230.64,1520.89 1236.64,1508.89 1240,1495.5C 1244.64,1478.64 1248.64,1461.64 1252,1444.5C 1268.39,1468.56 1284.39,1492.9 1300,1517.5C 1300.75,1518.99 1301.91,1519.99 1303.5,1520.5C 1318.31,1512.93 1332.31,1504.1 1345.5,1494C 1366.46,1478.68 1386.46,1462.18 1405.5,1444.5C 1382.04,1423.55 1358.71,1402.38 1335.5,1381C 1326.87,1379.64 1318.2,1378.47 1309.5,1377.5C 1321.96,1345.49 1325.63,1312.49 1320.5,1278.5 Z"/></g>
<g><path style="opacity:1" fill="#fdfefd" d="M 698.5,1303.5 C 720.189,1301.42 735.023,1310.42 743,1330.5C 746.228,1358.77 733.728,1374.43 705.5,1377.5C 689.064,1376.23 677.898,1367.9 672,1352.5C 666.704,1328.42 675.538,1312.09 698.5,1303.5 Z"/></g>
<g><path style="opacity:1" fill="#fdfefe" d="M 579.5,1307.5 C 588.938,1308.39 591.104,1313.06 586,1321.5C 582.833,1325.33 579.667,1329.17 576.5,1333C 554.845,1340.25 532.845,1346.25 510.5,1351C 486.455,1357.09 466.621,1369.59 451,1388.5C 441.042,1402.28 437.709,1417.61 441,1434.5C 447.367,1456.38 462.034,1468.04 485,1469.5C 503.426,1467.47 517.093,1458.47 526,1442.5C 529.161,1434.11 530.161,1425.44 529,1416.5C 526.464,1407.06 523.631,1397.73 520.5,1388.5C 550.083,1394.74 577.749,1390.07 603.5,1374.5C 604.665,1382.48 604.832,1390.48 604,1398.5C 602.636,1410.68 600.636,1422.68 598,1434.5C 641.102,1412.68 686.602,1405.18 734.5,1412C 746.903,1413.45 757.736,1418.29 767,1426.5C 774.509,1435.54 777.176,1445.87 775,1457.5C 756.403,1516.62 737.403,1575.62 718,1634.5C 715.853,1635.48 713.686,1635.31 711.5,1634C 645.154,1607.85 586.487,1570.19 535.5,1521C 534.5,1520.33 533.5,1520.33 532.5,1521C 512.119,1531.68 490.452,1536.35 467.5,1535C 448.65,1531.99 433.15,1523.16 421,1508.5C 388.352,1462.74 388.352,1417.07 421,1371.5C 434.942,1354.89 451.775,1342.06 471.5,1333C 503.207,1323.19 535.54,1316.19 568.5,1312C 572.619,1311.36 576.285,1309.86 579.5,1307.5 Z"/></g>
<g><path style="opacity:1" fill="#fefefe" d="M 848.5,1335.5 C 849.376,1335.37 850.043,1335.7 850.5,1336.5C 860.353,1364.83 876.02,1389.33 897.5,1410C 899.667,1411.5 901.833,1413 904,1414.5C 904.49,1415.79 904.657,1417.13 904.5,1418.5C 893.585,1420.91 885.751,1427.24 881,1437.5C 865.524,1484.07 850.357,1530.74 835.5,1577.5C 835.529,1579.03 836.196,1580.2 837.5,1581C 914.679,1601.71 993.012,1607.05 1072.5,1597C 1089.91,1595.29 1107.25,1593.13 1124.5,1590.5C 1122.86,1571.03 1113.2,1557.2 1095.5,1549C 1094.57,1547.81 1093.9,1546.47 1093.5,1545C 1114.74,1529.37 1130.91,1509.54 1142,1485.5C 1144.73,1479.05 1146.57,1472.38 1147.5,1465.5C 1149.39,1465.3 1150.89,1465.96 1152,1467.5C 1172.87,1533.26 1194.03,1598.93 1215.5,1664.5C 1095.22,1703.03 973.223,1709.2 849.5,1683C 814.454,1675.1 780.12,1664.76 746.5,1652C 746.043,1651.59 745.709,1651.09 745.5,1650.5C 780.039,1545.55 814.372,1440.55 848.5,1335.5 Z"/></g>
<g><path style="opacity:1" fill="#096a47" d="M 651.5,1461.5 C 663.838,1461.33 676.171,1461.5 688.5,1462C 698.124,1465.1 702.291,1471.6 701,1481.5C 698.318,1493.4 694.485,1504.9 689.5,1516C 688.5,1516.67 687.5,1516.67 686.5,1516C 665.027,1500.69 643.693,1485.19 622.5,1469.5C 631.956,1465.87 641.623,1463.21 651.5,1461.5 Z"/></g>
<g><path style="opacity:1" fill="#fdfefd" d="M 1053.5,1715.5 C 1085,1713.5 1100.16,1728.17 1099,1759.5C 1093.85,1778.25 1081.51,1787.92 1062,1788.5C 1039.42,1786.25 1027.25,1773.75 1025.5,1751C 1027.33,1733.15 1036.66,1721.31 1053.5,1715.5 Z"/></g>
<g><path style="opacity:1" fill="#fdfdfd" d="M 929.5,1716.5 C 959.828,1716.99 973.994,1732.33 972,1762.5C 964.899,1783.14 950.399,1792.31 928.5,1790C 907.351,1783.83 897.518,1769.66 899,1747.5C 903.349,1731.32 913.516,1720.99 929.5,1716.5 Z"/></g>
</svg>
